<svg width="613" height="460" viewBox="0 0 613 460" fill="none" xmlns="http://www.w3.org/2000/svg">
<path d="M510.703 350.752C529.083 337.671 539.529 327.294 539.698 323.228C540.563 302.55 518.469 328.083 491.45 300.819C439.734 248.666 587.134 150.548 400.944 150.548C267.352 150.548 148.418 278.457 91.8999 350.752H510.703Z" fill="#F6D4A0"/>
<path d="M530.791 292.916C536.108 292.916 540.418 290.859 540.418 288.321C540.418 285.784 536.108 283.726 530.791 283.726C525.474 283.726 521.165 285.784 521.165 288.321C521.165 290.859 525.474 292.916 530.791 292.916Z" fill="#F6D4A0"/>
<path d="M157.486 227.927C147.749 227.927 138.232 225.04 130.136 219.631C122.041 214.222 115.731 206.534 112.005 197.538C108.279 188.543 107.304 178.645 109.204 169.096C111.103 159.547 115.792 150.775 122.676 143.89C129.561 137.006 138.332 132.317 147.882 130.418C157.431 128.518 167.329 129.493 176.324 133.219C185.319 136.945 193.008 143.255 198.417 151.35C203.826 159.446 206.713 168.963 206.713 178.7C206.699 191.751 201.508 204.264 192.279 213.493C183.05 222.722 170.537 227.913 157.486 227.927ZM157.486 130.238C147.901 130.238 138.531 133.08 130.562 138.405C122.592 143.73 116.381 151.299 112.713 160.154C109.045 169.009 108.085 178.753 109.955 188.154C111.825 197.555 116.44 206.19 123.218 212.967C129.995 219.745 138.63 224.361 148.031 226.23C157.432 228.1 167.176 227.141 176.031 223.473C184.886 219.805 192.455 213.593 197.78 205.624C203.105 197.654 205.948 188.285 205.948 178.7C205.933 165.851 200.823 153.533 191.738 144.448C182.652 135.362 170.334 130.252 157.486 130.238Z" fill="#A6C2EA"/>
<path d="M531.228 299.188C524.109 299.188 517.15 297.077 511.231 293.122C505.312 289.167 500.698 283.545 497.974 276.968C495.249 270.391 494.537 263.154 495.926 256.172C497.314 249.19 500.742 242.776 505.776 237.742C510.81 232.708 517.224 229.28 524.206 227.891C531.188 226.503 538.425 227.215 545.002 229.94C551.579 232.664 557.201 237.277 561.156 243.197C565.111 249.116 567.222 256.075 567.222 263.194C567.206 272.735 563.409 281.881 556.662 288.628C549.915 295.374 540.769 299.172 531.228 299.188ZM531.228 227.927C524.261 227.927 517.45 229.993 511.656 233.864C505.863 237.735 501.348 243.237 498.681 249.674C496.015 256.111 495.317 263.195 496.677 270.028C498.036 276.862 501.391 283.139 506.318 288.066C511.245 292.993 517.522 296.348 524.355 297.707C531.189 299.066 538.272 298.369 544.709 295.702C551.146 293.036 556.648 288.521 560.519 282.727C564.39 276.934 566.456 270.123 566.456 263.156C566.44 253.817 562.723 244.866 556.12 238.263C549.517 231.66 540.566 227.943 531.228 227.927Z" fill="#F6D4A0"/>
<path d="M183.562 163.965H131.409V193.434H183.562V163.965Z" fill="#F6D4A0"/>
<path d="M180.928 190.003H134.021V165.68H180.905L180.928 190.003ZM134.81 189.237H180.162V166.446H134.787L134.81 189.237Z" fill="white"/>
<path d="M157.746 180.446H157.225L131.409 163.965H183.555L157.746 180.446Z" fill="#F6D4A0"/>
<path d="M157.854 180.829H157.089L130.101 163.582H184.873L157.854 180.829ZM157.334 180.063H157.632L182.269 164.348H132.72L157.334 180.063Z" fill="white"/>
<path d="M408.127 121.859C400.179 121.861 392.409 119.505 385.8 115.091C379.191 110.676 374.039 104.4 370.997 97.0572C367.954 89.7144 367.158 81.6342 368.708 73.8387C370.259 66.0432 374.086 58.8825 379.706 53.2623C385.326 47.6422 392.487 43.8149 400.282 42.2647C408.078 40.7144 416.158 41.5108 423.501 44.5532C430.844 47.5955 437.119 52.7471 441.534 59.3564C445.949 65.9656 448.305 73.7357 448.303 81.6839C448.293 92.336 444.057 102.549 436.525 110.081C428.993 117.613 418.78 121.849 408.127 121.859ZM408.127 42.2664C400.331 42.2649 392.709 44.5754 386.226 48.9057C379.743 53.2361 374.69 59.3917 371.705 66.5942C368.72 73.7966 367.939 81.7224 369.459 89.3691C370.979 97.0159 374.732 104.04 380.245 109.554C385.757 115.067 392.781 118.822 400.427 120.343C408.073 121.865 415.999 121.085 423.202 118.102C430.406 115.118 436.562 110.066 440.894 103.584C445.225 97.1015 447.537 89.4802 447.537 81.6839C447.527 71.2342 443.372 61.2152 435.984 53.8254C428.595 46.4356 418.577 42.2786 408.127 42.2664Z" fill="#A6C2EA"/>
<path d="M549.102 146.765C541.154 146.766 533.384 144.411 526.775 139.996C520.166 135.582 515.015 129.306 511.972 121.964C508.93 114.622 508.133 106.542 509.682 98.7466C511.232 90.9513 515.058 83.7906 520.678 78.1701C526.297 72.5496 533.457 68.7217 541.252 67.1706C549.047 65.6195 557.127 66.4149 564.47 69.456C571.813 72.4972 578.089 77.6475 582.505 84.2558C586.921 90.8641 589.278 98.6334 589.278 106.581C589.268 117.234 585.032 127.448 577.5 134.981C569.968 142.515 559.755 146.752 549.102 146.765ZM549.102 67.1715C541.305 67.1699 533.683 69.4806 527.2 73.8113C520.717 78.142 515.663 84.298 512.679 91.501C509.695 98.7039 508.913 106.63 510.434 114.277C511.955 121.924 515.709 128.948 521.222 134.461C526.735 139.974 533.759 143.729 541.406 145.249C549.053 146.77 556.979 145.989 564.182 143.004C571.385 140.02 577.541 134.967 581.872 128.483C586.203 122 588.513 114.378 588.512 106.581C588.5 96.1328 584.344 86.1159 576.956 78.7277C569.567 71.3396 559.55 67.1836 549.102 67.1715Z" fill="#ECA3B5"/>
<path d="M283.664 98.1108C294.217 98.1108 302.772 89.5561 302.772 79.0033C302.772 68.4505 294.217 59.8958 283.664 59.8958C273.111 59.8958 264.557 68.4505 264.557 79.0033C264.557 89.5561 273.111 98.1108 283.664 98.1108Z" fill="#ECA3B5"/>
<path d="M273.632 90.6133C271.631 88.2494 270.63 85.0049 270.63 80.8796C270.587 77.9097 271.123 74.9598 272.208 72.195C273.163 69.7378 274.81 67.6098 276.949 66.0684C279.2 64.5287 281.88 63.7406 284.607 63.8168C288.344 63.8168 291.037 64.8379 292.686 66.8801C294.335 68.9224 295.157 71.6283 295.152 74.998C295.237 77.3521 294.836 79.6985 293.973 81.8905C293.391 83.4074 292.4 84.733 291.109 85.7196C290.136 86.4403 288.965 86.8441 287.754 86.8761C285.702 86.8761 284.607 86.0413 284.454 84.3718H284.377C284.07 85.0708 283.571 85.6683 282.937 86.0949C282.295 86.4784 281.556 86.6698 280.808 86.6463C280.306 86.6723 279.804 86.5774 279.346 86.3695C278.887 86.1616 278.485 85.8469 278.174 85.4516C277.498 84.4686 277.169 83.2882 277.24 82.0972C277.24 81.7909 277.24 81.3314 277.316 80.803L277.737 76.9738C278.166 73.2315 279.683 71.3603 282.286 71.3603C282.991 71.3257 283.686 71.5355 284.254 71.9541C284.822 72.3727 285.228 72.9745 285.403 73.6578H285.48L285.817 71.4905H289.347L288.245 82.0819L288.206 82.6869C288.206 83.1694 288.459 83.4068 288.972 83.4068C289.957 83.4068 290.711 82.5414 291.231 80.8106C291.765 78.941 292.023 77.0034 291.997 75.0592C292.118 72.944 291.456 70.8582 290.136 69.2006C288.896 67.766 286.999 67.0512 284.446 67.0563C281.107 67.0563 278.554 68.2944 276.788 70.7706C275.021 73.2468 274.148 76.6803 274.169 81.071C274.169 84.2058 274.909 86.6412 276.389 88.3771C277.87 90.113 280.076 90.9784 283.006 90.9733C284.4 90.9901 285.789 90.7991 287.126 90.4065C288.48 89.9577 289.745 89.2761 290.864 88.3924L290.557 92.0378C289.446 92.7868 288.216 93.3434 286.92 93.6843C285.566 94.0129 284.177 94.1724 282.784 94.1591C278.674 94.1847 275.624 93.0027 273.632 90.6133ZM284.783 80.6575L285.166 77.0581L285.204 76.5986C285.222 76.3697 285.19 76.1398 285.11 75.9244C285.031 75.709 284.906 75.5132 284.745 75.3503C284.413 75.056 283.978 74.9046 283.535 74.929C283.263 74.9126 282.992 74.9532 282.737 75.0482C282.483 75.1432 282.251 75.2904 282.057 75.4804C281.637 76.0036 281.398 76.6483 281.375 77.3185L281.03 80.5426V81.117C280.987 81.6397 281.143 82.1596 281.467 82.5721C281.626 82.7356 281.818 82.8628 282.031 82.9448C282.244 83.0267 282.472 83.0616 282.7 83.0469C283.902 83.0775 284.607 82.2811 284.783 80.6881V80.6575Z" fill="white"/>
<path d="M392.819 92.0915H436.793V68.1133H387.366V90.2995L383.636 102.369L392.819 92.0915Z" fill="#A6C2EA"/>
<path d="M428.414 86.6616C427.143 86.6616 426.408 85.6353 425.688 84.6321C424.715 83.2689 423.605 81.7219 420.963 81.5688C418.594 81.4566 416.247 82.0654 414.231 83.3149C413.136 83.9122 412.278 84.3794 411.497 83.9122C411.299 83.7507 411.142 83.5441 411.039 83.3097C410.936 83.0752 410.891 82.8197 410.907 82.5643C409.767 83.3116 408.583 83.9893 407.362 84.5938C406.894 84.8312 405.47 85.5434 404.758 84.7163C404.572 84.4852 404.464 84.2009 404.451 83.9046C403.816 84.2942 403.127 84.5883 402.407 84.7776C401.764 84.9987 401.067 85.004 400.422 84.7924C399.776 84.5809 399.217 84.1643 398.83 83.6059C398.25 82.4344 398.08 81.1022 398.348 79.8227C397.155 80.608 395.909 81.3092 394.618 81.9211L394.296 81.2241C395.766 80.5156 397.179 79.6964 398.524 78.7735C399.023 76.2718 399.978 73.8834 401.342 71.7278C402.031 70.7552 402.629 70.3416 403.165 70.4718C403.862 70.6403 403.984 71.6206 404.03 71.9422C404.405 74.7835 401.786 77.395 399.213 79.233C398.914 80.8948 398.93 82.3729 399.466 83.177C399.771 83.5982 400.205 83.9093 400.702 84.0639C401.199 84.2185 401.732 84.2083 402.223 84.0348C403.047 83.8227 403.826 83.4619 404.52 82.9702C404.988 81.1307 405.787 79.3919 406.879 77.8392C407.921 76.3075 408.411 76.3075 408.725 76.407C409.238 76.5985 409.154 77.3184 409.123 77.5941C408.878 79.7767 407.17 81.99 405.225 83.3991C405.187 83.8356 405.225 84.1649 405.393 84.2568C405.562 84.3487 405.891 84.4789 407.04 83.9122C408.39 83.2313 409.695 82.4639 410.946 81.6147C411.115 80.3139 411.487 79.0477 412.048 77.8621C413.059 75.7637 414.346 74.7988 415.487 75.2506C415.76 75.3288 416.002 75.4891 416.18 75.7098C416.358 75.9304 416.464 76.2007 416.483 76.4836C416.559 77.8315 414.629 79.9682 411.681 82.0283C411.681 82.6716 411.727 83.1234 411.911 83.2306C412.293 83.4604 412.876 83.1694 413.879 82.618C416.026 81.3103 418.513 80.6705 421.024 80.78C424.026 80.9331 425.305 82.7175 426.324 84.1496C427.342 85.5817 427.924 86.3705 429.64 85.5128L429.984 86.2021C429.505 86.4774 428.967 86.6348 428.414 86.6616ZM408.365 77.2495C407.072 78.6923 406.091 80.3871 405.485 82.2274C406.954 81.0345 407.966 79.3707 408.349 77.5175C408.357 77.4026 408.365 77.349 408.365 77.2495ZM414.897 75.9552C413.902 75.9552 412.998 77.663 412.73 78.2527C412.3 79.1425 411.988 80.0849 411.803 81.0557C414.292 79.233 415.755 77.5022 415.701 76.5755C415.701 76.3994 415.632 76.1773 415.204 76.0241C415.107 75.9825 415.003 75.9591 414.897 75.9552ZM402.966 71.2224C402.866 71.2224 402.521 71.3908 401.97 72.1797C400.808 74.0045 399.959 76.0105 399.458 78.1149C401.618 76.453 403.563 74.2857 403.287 72.0648C403.188 71.2989 402.996 71.2377 402.996 71.2377L402.966 71.2224Z" fill="white"/>
<path d="M517.436 165.489C522.516 165.489 526.634 161.371 526.634 156.291C526.634 151.211 522.516 147.094 517.436 147.094C512.356 147.094 508.238 151.211 508.238 156.291C508.238 161.371 512.356 165.489 517.436 165.489Z" fill="#F6D4A0"/>
<path d="M110.579 107.738C115.659 107.738 119.777 103.62 119.777 98.5399C119.777 93.4602 115.659 89.3423 110.579 89.3423C105.5 89.3423 101.382 93.4602 101.382 98.5399C101.382 103.62 105.5 107.738 110.579 107.738Z" fill="#A6C2EA"/>
<path d="M194.192 77.663C196.467 77.663 198.312 75.8183 198.312 73.5428C198.312 71.2673 196.467 69.4226 194.192 69.4226C191.916 69.4226 190.072 71.2673 190.072 73.5428C190.072 75.8183 191.916 77.663 194.192 77.663Z" fill="#F6D4A0"/>
<path d="M371.759 12.1537C374.034 12.1537 375.879 10.309 375.879 8.03351C375.879 5.758 374.034 3.91333 371.759 3.91333C369.483 3.91333 367.639 5.758 367.639 8.03351C367.639 10.309 369.483 12.1537 371.759 12.1537Z" fill="#F6D4A0"/>
<path d="M245.335 189.145C247.611 189.145 249.455 187.301 249.455 185.025C249.455 182.75 247.611 180.905 245.335 180.905C243.06 180.905 241.215 182.75 241.215 185.025C241.215 187.301 243.06 189.145 245.335 189.145Z" fill="#F6D4A0"/>
<path d="M530.348 289.906C524.65 280.288 519.09 271.457 514.127 262.336C510.913 256.273 508.099 250.005 505.703 243.574C500.871 230.937 508.981 214.702 524.504 211.033C527.993 210.211 531.613 210.113 535.141 210.744C538.67 211.376 542.031 212.723 545.018 214.704C548.006 216.684 550.556 219.256 552.511 222.26C554.466 225.264 555.785 228.637 556.386 232.17C557.05 236.537 556.548 241.002 554.931 245.113C549.103 260.943 539.913 274.973 530.348 289.906ZM544.355 235.877C544.355 233.15 543.546 230.485 542.031 228.218C540.517 225.951 538.364 224.185 535.845 223.141C533.326 222.098 530.554 221.825 527.88 222.357C525.206 222.889 522.75 224.202 520.822 226.129C518.894 228.057 517.581 230.514 517.05 233.188C516.518 235.862 516.791 238.633 517.834 241.152C518.877 243.671 520.644 245.824 522.911 247.339C525.178 248.853 527.843 249.662 530.57 249.662C534.216 249.632 537.705 248.17 540.284 245.591C542.863 243.012 544.325 239.524 544.355 235.877Z" fill="#A6C2EA"/>
<path d="M544.231 237.668C543.86 240.289 542.743 242.748 541.012 244.751C539.282 246.754 537.011 248.216 534.472 248.963C531.932 249.71 529.231 249.71 526.692 248.963C524.152 248.216 521.882 246.754 520.151 244.751C518.421 242.748 517.303 240.289 516.933 237.668C516.562 235.047 516.954 232.375 518.061 229.971C519.169 227.567 520.945 225.532 523.178 224.11C525.411 222.689 528.006 221.94 530.653 221.954C532.617 221.975 534.554 222.413 536.335 223.24C538.116 224.067 539.702 225.263 540.986 226.749C542.27 228.235 543.223 229.977 543.783 231.86C544.342 233.742 544.495 235.722 544.231 237.668Z" fill="white"/>
<path d="M544.455 339.555V338.789C545.511 338.789 595.275 338.552 605.285 313.172C606.464 310.185 606.449 307.903 605.246 306.18C601.655 301.041 587.632 301.401 571.404 301.815C544.6 302.504 511.156 303.346 500.136 281.597L500.825 281.252C511.623 302.581 544.761 301.731 571.381 301.049C588.513 300.612 602.015 300.283 605.844 305.736C607.207 307.689 607.245 310.208 605.966 313.455C595.819 339.31 545.534 339.555 544.455 339.555Z" fill="#F6D4A0"/>
<path d="M556.262 131.639C554.689 131.657 553.121 131.45 551.606 131.027C549.273 130.367 547.032 129.417 544.935 128.201C541.535 126.276 538.395 123.924 535.592 121.201C533.563 119.266 531.698 117.166 530.017 114.921C527.866 112.119 526.125 109.025 524.848 105.731C524.047 103.7 523.611 101.543 523.561 99.3594C523.521 97.9352 523.831 96.523 524.465 95.2469C524.775 94.6349 525.178 94.0744 525.659 93.585L530.354 88.8981C531.12 88.1323 531.641 88.1323 532.437 88.8981C535.281 91.7317 538.117 94.5678 540.945 97.4065C541.057 97.5104 541.157 97.626 541.244 97.7511C541.398 97.9448 541.477 98.1866 541.469 98.4335C541.46 98.6804 541.364 98.9163 541.198 99.099C541.091 99.2292 540.968 99.3441 540.854 99.4666C539.506 100.814 538.155 102.16 536.802 103.503C536.691 103.592 536.614 103.716 536.582 103.855C536.55 103.994 536.565 104.139 536.626 104.268C537.566 106.554 538.827 108.694 540.371 110.625C541.445 111.993 542.642 113.259 543.948 114.408C545.944 116.248 548.287 117.672 550.84 118.597C550.989 118.664 551.156 118.682 551.316 118.647C551.476 118.613 551.62 118.528 551.728 118.406C553.069 117.027 554.439 115.679 555.795 114.324C555.887 114.24 555.971 114.148 556.055 114.063C556.157 113.958 556.279 113.875 556.414 113.818C556.549 113.761 556.694 113.732 556.84 113.732C556.987 113.732 557.132 113.761 557.266 113.818C557.401 113.875 557.523 113.958 557.625 114.063C557.717 114.14 557.801 114.224 557.893 114.316L566.317 122.74C567.137 123.56 567.137 124.042 566.317 124.862C564.74 126.447 563.155 128.04 561.562 129.617C560.567 130.577 559.303 131.211 557.939 131.432C557.273 131.547 556.607 131.601 556.262 131.639Z" fill="#ECA3B5"/>
<path d="M489.1 242.601C489.023 242.602 488.948 242.577 488.885 242.532C488.801 242.476 488.743 242.389 488.723 242.29C488.703 242.191 488.723 242.088 488.778 242.004C491.183 238.427 492.707 234.659 494.315 230.662C495.004 228.961 495.717 227.208 496.498 225.469C496.543 225.383 496.62 225.317 496.712 225.286C496.804 225.254 496.905 225.259 496.994 225.299C497.083 225.339 497.153 225.411 497.19 225.501C497.228 225.591 497.229 225.692 497.195 225.783C496.429 227.506 495.709 229.253 495.027 230.945C493.396 234.981 491.864 238.787 489.414 242.432C489.379 242.484 489.332 242.526 489.278 242.556C489.223 242.585 489.162 242.6 489.1 242.601Z" fill="#28192D"/>
<path d="M130.69 299.617C130.593 299.619 130.5 299.583 130.429 299.517C130.393 299.482 130.365 299.439 130.345 299.393C130.326 299.346 130.316 299.296 130.316 299.245C130.316 299.195 130.326 299.145 130.345 299.098C130.365 299.051 130.393 299.009 130.429 298.974C160.343 267.222 199.852 232.645 238.841 204.11C246.422 198.55 253.95 193.327 261.218 188.586C287.221 171.597 315.727 158.79 345.697 150.632C375.623 142.47 406.676 139.224 437.643 141.02C445.7 141.495 453.465 142.261 461.384 143.379C469.541 144.476 477.565 146.4 485.332 149.123C491.072 151.348 496.196 154.917 500.273 159.531C510.865 173.392 506.844 190.639 503.29 205.856C502.984 207.163 502.685 208.452 502.394 209.723C502.384 209.773 502.363 209.819 502.334 209.861C502.305 209.902 502.268 209.938 502.225 209.965C502.183 209.992 502.135 210.01 502.085 210.019C502.035 210.027 501.984 210.026 501.935 210.014C501.885 210.003 501.839 209.983 501.797 209.954C501.756 209.925 501.721 209.888 501.694 209.845C501.667 209.803 501.648 209.755 501.64 209.705C501.631 209.655 501.633 209.604 501.644 209.555C501.935 208.284 502.241 206.989 502.54 205.68C506.055 190.631 510.037 173.568 499.683 160.013C495.689 155.506 490.677 152.017 485.064 149.835C477.348 147.135 469.378 145.226 461.277 144.137C453.389 143.027 445.654 142.253 437.613 141.786C406.729 139.994 375.758 143.23 345.912 151.367C316.026 159.509 287.6 172.285 261.67 189.23C254.418 193.962 246.897 199.185 239.331 204.722C200.327 233.242 160.825 267.781 130.958 299.502C130.923 299.538 130.881 299.567 130.835 299.587C130.789 299.606 130.74 299.617 130.69 299.617Z" fill="#28192D"/>
<path d="M196.504 260.374L162.802 293.527L163.339 294.073L197.041 260.92L196.504 260.374Z" fill="white"/>
<path d="M225.231 279.662L170.628 295.535L170.842 296.271L225.445 280.397L225.231 279.662Z" fill="white"/>
<path d="M211.319 266.294L193.116 278.544L193.543 279.18L211.746 266.929L211.319 266.294Z" fill="white"/>
<path d="M564.748 128.177C546.039 126.026 536.305 104.153 536.213 103.962L536.918 103.656C537.01 103.87 546.529 125.313 564.84 127.396L564.748 128.177Z" fill="white"/>
<path d="M548.336 93.7302C555.497 93.8375 561.746 101.228 560.728 108.281L560.536 108.327C559.754 105.134 558.24 102.167 556.113 99.66C553.986 97.1532 551.306 95.1755 548.283 93.8834L548.352 93.7073L548.336 93.7302Z" fill="#ECA3B5"/>
<path d="M550.489 85.7734C559.059 86.1333 566.189 93.4317 568.524 101.35C569.348 104.02 569.573 106.839 569.183 109.606H568.984C567.919 99.1142 560.751 88.9975 550.428 85.9495L550.489 85.7581V85.7734Z" fill="#ECA3B5"/>
<path d="M549.953 77.1578C562.712 76.974 573.947 87.3281 577.27 99.2751C578.447 103.266 578.654 107.48 577.875 111.567H577.684C578.021 99.5278 571.35 87.6957 561.111 81.4694C557.686 79.3797 553.885 77.98 549.922 77.3493V77.1501L549.953 77.1578Z" fill="#ECA3B5"/>
<path d="M294.417 350.691C293.811 341.041 287.838 316.121 287.838 316.121L261.708 325.433L259.9 336.484C272.338 338.016 283.113 346.057 293.903 352.965C294.259 352.261 294.435 351.479 294.417 350.691Z" fill="white"/>
<path d="M293.904 353.348C293.831 353.345 293.76 353.324 293.697 353.286L289.485 350.545C280.196 344.472 270.592 338.192 259.863 336.867C259.811 336.86 259.761 336.843 259.717 336.817C259.672 336.791 259.633 336.756 259.602 336.714C259.571 336.673 259.548 336.626 259.535 336.576C259.522 336.526 259.519 336.474 259.526 336.423L261.341 325.372C261.353 325.304 261.383 325.241 261.427 325.189C261.471 325.136 261.529 325.096 261.593 325.073L287.716 315.761C287.817 315.722 287.929 315.722 288.03 315.761C288.124 315.817 288.192 315.908 288.221 316.013C288.283 316.258 294.203 341.071 294.808 350.644C294.832 351.496 294.645 352.341 294.264 353.103C294.24 353.151 294.207 353.195 294.166 353.23C294.126 353.266 294.078 353.293 294.026 353.309L293.904 353.348ZM260.337 336.155C271.059 337.602 280.647 343.859 289.899 349.901C291.175 350.744 292.451 351.576 293.728 352.398C293.951 351.865 294.055 351.29 294.034 350.713C293.483 341.891 288.344 319.927 287.563 316.626L262.053 325.716L260.337 336.155Z" fill="#28192D"/>
<path d="M291.017 198.144C291.017 198.144 287.862 197.378 282.976 189.092C278.09 180.805 276.727 174.87 281.322 169.41C285.917 163.949 311.779 158.635 317.668 159.646C319.29 159.861 320.807 160.568 322.014 161.671C323.222 162.775 324.063 164.222 324.423 165.818C324.423 165.818 332.372 181.625 329.76 192.224C327.149 202.823 328.037 213.055 319.131 214.923C310.224 216.792 294.563 183.463 294.563 183.463" fill="#28192D"/>
<path d="M296.837 243.535C295.343 243.463 293.851 243.716 292.464 244.277C291.077 244.837 289.829 245.692 288.804 246.782C283.16 252.763 272.109 266.104 266.733 283.626C262.203 298.905 259.717 314.717 259.342 330.648C259.342 330.648 284.898 341.799 296.868 335.167L308.777 328.542L296.837 243.535Z" fill="#A6C2EA"/>
<path d="M286.958 337.664C282.418 337.569 277.906 336.929 273.518 335.757C268.632 334.522 263.843 332.93 259.189 330.993C259.12 330.964 259.061 330.915 259.02 330.852C258.979 330.79 258.958 330.716 258.96 330.641C258.96 330.411 259.044 307.398 266.365 283.504C271.726 266.097 282.54 252.871 288.528 246.514C289.59 245.384 290.884 244.498 292.321 243.916C293.758 243.334 295.304 243.071 296.853 243.145C296.942 243.148 297.028 243.182 297.094 243.243C297.16 243.303 297.202 243.385 297.213 243.474L309.152 328.481C309.164 328.558 309.152 328.637 309.117 328.707C309.083 328.776 309.029 328.834 308.961 328.872L297.021 335.504C294.425 336.967 291.056 337.664 286.958 337.664ZM259.725 330.388C262.306 331.476 285.611 340.957 296.654 334.83L308.363 328.321L296.501 243.895C295.114 243.875 293.738 244.144 292.46 244.685C291.182 245.225 290.031 246.026 289.08 247.035C283.145 253.33 272.392 266.472 267.1 283.726C260.223 306.165 259.756 327.815 259.725 330.388Z" fill="#28192D"/>
<path d="M286.345 249.332C290.809 236.972 333.535 223.409 366.872 225.821C400.209 228.234 395.889 358.31 395.889 358.31L296.262 355.469C296.262 355.469 284.124 255.413 286.345 249.332Z" fill="#A6C2EA"/>
<path d="M395.89 358.693L296.263 355.852C296.172 355.849 296.084 355.813 296.017 355.751C295.949 355.69 295.906 355.606 295.895 355.515C295.413 351.556 284.071 258.445 285.825 253C285.858 252.905 285.927 252.826 286.017 252.781C286.107 252.735 286.211 252.726 286.307 252.755C286.404 252.787 286.484 252.855 286.53 252.946C286.576 253.036 286.584 253.141 286.552 253.238C284.898 258.369 295.857 348.89 296.615 355.094L395.53 357.912C395.745 350.131 398.594 228.486 366.85 226.189C341.401 224.389 301.677 232.813 288.612 246.391C288.577 246.427 288.534 246.456 288.488 246.475C288.441 246.495 288.391 246.505 288.34 246.505C288.29 246.505 288.24 246.495 288.193 246.475C288.147 246.456 288.104 246.427 288.069 246.391C287.998 246.318 287.958 246.221 287.958 246.119C287.958 246.018 287.998 245.92 288.069 245.848C301.279 232.063 341.294 223.577 366.949 225.43C380.987 226.441 390.192 249.171 394.313 292.916C397.376 325.387 396.334 358.011 396.319 358.302C396.322 358.358 396.312 358.413 396.291 358.465C396.27 358.516 396.238 358.562 396.197 358.599C396.156 358.637 396.107 358.664 396.054 358.681C396.001 358.697 395.945 358.701 395.89 358.693Z" fill="#28192D"/>
<path d="M406.09 411.405C403.624 422.893 401.296 433.699 382.311 439.741C381.17 440.109 380.014 440.453 378.85 440.775C392.29 440.974 405.294 440.882 417.593 440.43C422.625 435.544 426.247 429.709 430.046 423.582C431.187 421.729 432.343 419.822 433.622 417.892C438.569 411.298 443.034 406.167 450.026 400.913C454.682 397.59 458.542 395.66 462.54 394.664C474.709 389.732 487.552 388.384 500.426 388.193C499.223 371.712 490.324 356.847 488.073 353.317C478.201 356.15 458.381 362.829 431.263 376.82C411.313 387.136 408.541 400.025 406.09 411.405Z" fill="white"/>
<path d="M450.478 401.55C443.586 406.734 439.136 411.827 434.25 418.344C433.017 420.244 431.838 422.174 430.697 424.004C427.028 429.931 423.513 435.599 418.734 440.416L421.461 440.308C427.511 440.048 433.117 439.596 438.309 438.976C449.245 426.202 463.023 417.264 478.278 413.244C484.107 411.567 490.115 410.588 496.175 410.326C499.821 403.434 500.87 396.082 500.456 388.975C487.644 389.166 474.862 390.506 462.762 395.4C458.826 396.396 455.05 398.287 450.478 401.55Z" fill="white"/>
<path d="M338.59 406.474C334.849 408.256 330.763 409.2 326.62 409.238C314.887 409.238 304.847 401.22 294.37 392.842L292.417 391.31C289.676 392.428 286.291 393.608 282.577 394.772C287.316 398.566 291.561 402.94 295.213 407.791C306.516 422.656 323.457 430 340.535 427.343C348.256 426.204 355.527 423.002 361.58 418.074C367.632 413.146 372.242 406.675 374.921 399.344C386.278 367.707 441.433 353.057 441.992 352.911L442.184 353.677C441.632 353.823 386.86 368.366 375.641 399.627C372.914 407.087 368.224 413.673 362.065 418.688C355.906 423.704 348.507 426.964 340.65 428.124C338.338 428.474 336.003 428.651 333.665 428.652C318.77 428.652 304.564 421.338 294.608 408.273C290.892 403.342 286.548 398.917 281.688 395.109C276.327 396.778 270.53 398.409 265.445 399.78C275.561 404.743 283.733 411.421 288.879 419.033C294.202 426.914 304.962 433.89 318.387 438.386C337.923 439.634 357.353 440.507 375.985 440.844C378.045 440.339 380.082 439.772 382.112 439.129C400.668 433.194 402.851 423.046 405.37 411.329C407.852 399.788 410.67 386.707 430.941 376.238C457.906 362.323 477.657 355.63 487.667 352.743L487.582 352.62L491.603 351.617H393.224L381.806 355.791C378.888 364.238 367.071 393.416 338.59 406.474Z" fill="white"/>
<path d="M143.976 381.99C141.886 386.906 140.913 390.942 140.913 394.297C157.256 389.227 174.709 383.759 191.068 378.551C188.176 377.683 185.633 375.925 183.8 373.527C181.403 370.28 180.453 365.716 181.05 360.317C181.318 357.853 181.865 355.427 182.682 353.087L183.402 353.355C183.356 353.478 178.883 365.609 184.412 373.068C186.401 375.624 189.212 377.415 192.369 378.138C200.939 375.404 209.218 372.777 216.807 370.257C215.089 369.341 213.575 368.085 212.358 366.566C207.763 360.692 210.619 353.164 210.642 353.087L211.362 353.363C211.362 353.432 208.651 360.577 212.963 366.099C214.273 367.72 215.929 369.029 217.81 369.928C222.957 368.243 227.766 366.642 232.231 365.149C231.803 364.843 231.445 364.448 231.182 363.993C228.857 360.008 226.859 355.841 225.208 351.532H166.186C164.845 352.804 150.471 366.727 143.976 381.99Z" fill="white"/>
<path d="M134.09 359.895C133.783 364.613 131.026 388.346 106.52 404.934C116.475 401.871 128.032 398.317 140.216 394.534C140.101 391.019 141.12 386.814 143.28 381.691C149.307 367.538 162.019 354.55 165.098 351.532H149.682C149.108 351.609 134.488 353.723 134.09 359.895Z" fill="white"/>
<path d="M233.188 364.835C247.854 359.888 257.894 356.196 259.502 354.879C266.77 348.913 290.588 357.674 290.588 357.674L298.675 353.225L305.567 352.076L357.644 351.532H226.051C227.676 355.702 229.622 359.74 231.871 363.61C232.185 364.135 232.642 364.559 233.188 364.835Z" fill="white"/>
<path d="M439.458 438.822C472.274 434.725 488.602 423.827 495.762 411.099C489.916 411.386 484.124 412.35 478.5 413.971C463.643 417.892 450.203 426.523 439.458 438.822Z" fill="white"/>
<path d="M222.857 429.809C227.085 430.273 231.366 430.735 235.7 431.195C231.628 429.56 227.184 429.08 222.857 429.809Z" fill="white"/>
<path d="M124.777 417.211C131.172 418.145 138.746 419.233 147.3 420.412C145.952 419.547 144.65 418.704 143.371 417.9L124.777 417.211Z" fill="white"/>
<path d="M342.037 378.804C338.066 381.582 333.32 383.037 328.474 382.962C326.21 382.944 323.953 382.687 321.742 382.197C318.779 381.561 316.068 380.872 313.563 380.144C303.998 384.18 303.393 386.501 293.797 390.682L293.23 390.927L294.846 392.221C309.114 403.617 321.428 413.466 338.269 405.754C365.877 393.102 377.679 365.126 380.88 356.028C372.839 358.954 362.194 362.829 351.84 366.535C349.703 371 346.578 375.618 342.037 378.804Z" fill="white"/>
<path d="M148.816 420.442L149.092 420.626C160.082 422.158 172.611 423.789 186.258 425.482C187.552 424.141 188.862 422.671 190.233 421.132L191.542 419.654L144.888 417.923L148.816 420.442Z" fill="white"/>
<path d="M103.839 405.753C130.131 389.334 133.018 364.636 133.324 359.849C133.63 355.063 140.883 352.651 145.577 351.532H121.768L96.4951 390.575L100.324 406.864L103.839 405.753Z" fill="white"/>
<path d="M251.193 412.7C247.432 410.929 243.553 409.422 239.583 408.189L210.144 420.374L192.53 419.723L190.799 421.668C189.566 423.054 188.379 424.387 187.192 425.635C197.753 426.937 208.973 428.269 220.652 429.571C226.61 427.756 232.691 428.913 238.319 431.471C251.576 432.849 265.269 434.174 279.154 435.361C273.318 426.493 263.646 418.528 251.193 412.7Z" fill="white"/>
<path d="M288.236 419.378C283.029 411.673 274.666 404.942 264.297 400.002C257.052 401.932 251.545 403.257 251.545 403.257L240.678 407.752C244.381 408.94 248.003 410.365 251.522 412.018C264.335 418.022 274.245 426.262 280.126 435.46C291.859 436.456 303.722 437.367 315.561 438.14C303.163 433.561 293.314 426.883 288.236 419.378Z" fill="white"/>
<path d="M341.562 378.184C345.743 375.243 348.707 371.046 350.752 366.926C340.206 370.709 330.074 374.286 323.427 376.499C319.843 377.686 316.994 378.743 314.643 379.7C316.871 380.321 319.238 380.918 321.834 381.469C329.538 383.101 336.201 381.99 341.562 378.184Z" fill="white"/>
<path d="M121.584 351.15H147.385C148.618 350.905 149.46 350.79 149.606 350.767L149.652 351.15H165.481L165.772 350.866L166.033 351.15H225.507L225.867 351.027C225.888 351.066 225.903 351.107 225.913 351.15H493.112L494.644 350.767H121.584C121.519 350.765 121.456 350.781 121.399 350.812C121.343 350.843 121.296 350.888 121.262 350.943L96.2271 389.518L96.3496 390.031L121.584 351.15Z" fill="#28192D"/>
<path d="M357.591 351.517L394.266 351.135H225.921L226.059 351.517H357.591Z" fill="#28192D"/>
<path d="M121.768 351.517H145.586C146.236 351.364 146.834 351.234 147.362 351.135H121.584L96.3501 390.016L96.4726 390.529L121.768 351.517Z" fill="#28192D"/>
<path d="M166.186 351.517H225.24L225.148 351.257L225.508 351.135H166.033L166.294 351.41L166.186 351.517Z" fill="#28192D"/>
<path d="M149.682 351.517H165.083L165.481 351.135H149.651L149.705 351.51L149.682 351.517Z" fill="#28192D"/>
<path d="M491.574 351.517L493.106 351.135H394.267L393.226 351.517H491.574Z" fill="#28192D"/>
<path d="M205.09 408.465C199.921 411.811 195.984 415.893 192.538 419.722L210.152 420.373L239.583 408.189C225.523 403.877 212.281 403.801 205.09 408.465Z" fill="#F6D4A0"/>
<path d="M105.906 413.197C105.439 413.496 105.003 413.825 104.559 414.147C108.074 414.706 115.058 415.786 124.777 417.21L143.371 417.9C129.463 409.116 119.27 404.36 105.906 413.197Z" fill="#F6D4A0"/>
<path d="M100.776 408.733L101.955 413.734L103.487 413.986C104.13 413.489 104.781 413.006 105.463 412.554C119.546 403.249 130.597 408.871 144.873 417.915L191.542 419.677C195.119 415.679 199.201 411.352 204.676 407.814C212.189 402.943 226.074 403.089 240.671 407.745L251.538 403.249C251.538 403.249 257.044 401.925 264.289 399.995C262.168 398.984 259.977 398.042 257.703 397.192C243.62 391.99 228.486 390.282 213.598 392.214C198.282 394.266 188.655 399.558 180.92 403.816C173.009 408.166 166.768 411.605 158.183 409.621C149.092 407.523 143.793 404.452 141.511 399.956C140.669 398.268 140.214 396.413 140.178 394.527C128.009 398.31 116.437 401.863 106.481 404.927C105.716 405.44 104.95 405.945 104.184 406.458C103.01 407.183 101.874 407.941 100.776 408.733Z" fill="#F6D4A0"/>
<path d="M158.359 408.879C166.66 410.793 172.795 407.423 180.568 403.15C188.341 398.877 198.067 393.531 213.499 391.464C228.51 389.508 243.772 391.23 257.971 396.48C260.559 397.45 263.046 398.522 265.43 399.696C270.515 398.325 276.335 396.694 281.673 395.025C257.588 376.223 226.533 378.176 202.792 379.708C198.847 380.072 194.869 379.685 191.068 378.567C174.709 383.775 157.256 389.243 140.913 394.312C140.918 396.159 141.348 397.981 142.169 399.635C144.375 403.893 149.506 406.834 158.359 408.879Z" fill="#F6D4A0"/>
<path d="M202.778 378.934C226.756 377.403 258.224 375.411 282.578 394.741C286.261 393.577 289.677 392.398 292.419 391.279C279.576 381.063 264.933 370.257 244.815 372.762C232.071 374.347 222.705 373.527 216.839 370.257C209.226 372.746 200.971 375.404 192.401 378.138C195.794 378.962 199.299 379.231 202.778 378.934Z" fill="#F6D4A0"/>
<path d="M244.722 372.004C265.331 369.438 280.188 380.558 293.23 390.95L293.797 390.705C303.393 386.524 303.998 384.203 313.563 380.167C299.732 376.147 292.311 370.847 286.169 366.451C282.531 363.847 279.384 361.596 275.669 360.233C270.546 358.349 261.479 360.776 252.694 363.128C243.91 365.479 235.67 367.669 232.239 365.149C227.805 366.643 222.965 368.213 217.818 369.928C223.623 372.808 232.584 373.505 244.722 372.004Z" fill="#F6D4A0"/>
<path d="M298.675 353.225L290.588 357.644C290.588 357.644 266.771 348.883 259.503 354.849C257.895 356.166 247.855 359.858 233.189 364.805C236.574 366.612 244.347 364.544 252.519 362.354C261.402 359.98 270.585 357.522 275.938 359.482C279.767 360.884 282.93 363.158 286.614 365.8C292.847 370.25 300.398 375.649 314.704 379.67C317.055 378.712 319.904 377.655 323.488 376.468C330.128 374.255 340.268 370.679 350.813 366.896C352.971 362.544 354.478 357.9 355.286 353.111L356.052 353.218C355.272 357.818 353.857 362.287 351.847 366.497C362.201 362.791 372.846 358.916 380.888 355.99C381.523 354.19 381.822 353.126 381.837 353.065L382.603 353.264C382.603 353.317 382.35 354.183 381.837 355.645L393.225 351.518H357.591L305.514 352.061L298.675 353.225ZM309.137 359.429C309.19 359.513 315.164 368.496 321.214 368.971C322.231 369.033 323.249 368.85 324.182 368.439C325.114 368.027 325.935 367.398 326.575 366.605C333.965 358.51 333.597 355.569 333.59 355.538L334.356 355.385C334.356 355.515 334.93 358.609 327.157 367.125C326.493 367.93 325.664 368.582 324.726 369.036C323.787 369.491 322.762 369.738 321.719 369.76H321.16C314.743 369.247 308.761 360.256 308.509 359.873L309.137 359.429Z" fill="#F6D4A0"/>
<path d="M103.839 405.754L100.324 406.834L100.585 407.929C101.618 407.163 102.675 406.474 103.763 405.8L103.839 405.754Z" fill="#F6D4A0"/>
<path d="M393.225 351.517L394.266 351.135L357.59 351.517H393.225Z" fill="#F6D4A0"/>
<path d="M133.324 359.849C133.018 364.636 130.13 389.334 103.839 405.753L106.504 404.934C131.011 388.346 133.783 364.613 134.074 359.895C134.473 353.723 149.092 351.609 149.667 351.532H145.593C140.913 352.651 133.63 355.124 133.324 359.849Z" fill="#F6D4A0"/>
<path d="M149.605 350.752C149.459 350.752 148.617 350.89 147.384 351.135H149.681L149.605 350.752Z" fill="#F6D4A0"/>
<path d="M149.683 351.517L149.629 351.142H147.331C146.803 351.242 146.206 351.372 145.555 351.525L149.683 351.517Z" fill="#F6D4A0"/>
<path d="M104.153 406.451C104.919 405.953 105.731 405.448 106.451 404.919L103.786 405.739L103.709 405.785C102.621 406.459 101.565 407.179 100.531 407.914L100.722 408.718C101.856 407.932 102.999 407.176 104.153 406.451Z" fill="#F6D4A0"/>
<path d="M251.522 412.018C248.002 410.371 244.38 408.951 240.678 407.768L239.583 408.22C243.552 409.443 247.431 410.94 251.193 412.7C263.638 418.528 273.31 426.485 279.154 435.361L280.119 435.445C274.245 426.248 264.335 418.007 251.522 412.018Z" fill="#F6D4A0"/>
<path d="M105.478 412.554C104.797 413.006 104.146 413.489 103.502 413.987L104.559 414.147C105.003 413.826 105.44 413.496 105.907 413.198C119.271 404.36 129.464 409.116 143.372 417.9L144.903 417.954C130.613 408.871 119.562 403.25 105.478 412.554Z" fill="#F6D4A0"/>
<path d="M204.676 407.822C199.208 411.36 195.118 415.687 191.542 419.684H192.538C195.984 415.855 199.92 411.773 205.09 408.427C212.281 403.763 225.522 403.832 239.552 408.166L240.647 407.714C226.073 403.096 212.189 402.951 204.676 407.822Z" fill="#F6D4A0"/>
<path d="M220.66 429.571L222.866 429.809C227.19 429.071 231.634 429.54 235.709 431.164L238.328 431.44C232.699 428.913 226.618 427.756 220.66 429.571Z" fill="#F6D4A0"/>
<path d="M288.872 418.949C283.726 411.337 275.554 404.659 265.437 399.696L264.296 400.003C274.666 404.942 283.029 411.674 288.236 419.378C293.299 426.883 303.162 433.561 315.561 438.126L318.38 438.302C304.932 433.807 294.195 426.83 288.872 418.949Z" fill="#F6D4A0"/>
<path d="M143.264 381.691C141.089 386.814 140.07 391.019 140.201 394.534L140.966 394.297C140.897 390.942 141.901 386.906 144.03 381.99C150.532 366.727 164.906 352.804 166.239 351.532H165.136C162.004 354.58 149.291 367.538 143.264 381.691Z" fill="#F6D4A0"/>
<path d="M430.912 376.155C410.64 386.624 407.822 399.704 405.341 411.245C402.821 422.978 400.638 433.11 382.082 439.045C380.076 439.688 378.039 440.255 375.956 440.76L378.827 440.806C379.992 440.485 381.125 440.14 382.289 439.772C401.274 433.699 403.602 422.87 406.068 411.437C408.534 400.003 411.291 387.167 431.241 376.867C458.359 362.875 478.179 356.189 488.051 353.363L487.614 352.689C477.651 355.546 457.877 362.239 430.912 376.155Z" fill="#F6D4A0"/>
<path d="M165.772 350.867L165.481 351.15H166.033L165.772 350.867Z" fill="#F6D4A0"/>
<path d="M166.186 351.517L166.294 351.41L166.033 351.135H165.482L165.083 351.517H166.186Z" fill="#F6D4A0"/>
<path d="M158.191 409.629C166.776 411.612 173.018 408.174 180.929 403.824C188.664 399.566 198.298 394.274 213.607 392.221C228.495 390.289 243.629 391.997 257.711 397.199C260.009 398.049 262.176 398.991 264.297 400.002L265.439 399.696C263.054 398.527 260.568 397.455 257.979 396.479C243.781 391.229 228.519 389.508 213.507 391.463C198.053 393.531 188.35 398.869 180.577 403.15C172.803 407.431 166.684 410.808 158.367 408.878C149.514 406.833 144.383 403.893 142.208 399.619C141.387 397.965 140.957 396.144 140.952 394.297L140.187 394.534C140.222 396.421 140.677 398.275 141.519 399.964C143.801 404.459 149.101 407.53 158.191 409.629Z" fill="#F6D4A0"/>
<path d="M184.443 373.068C178.914 365.593 183.386 353.478 183.432 353.355L182.712 353.087C181.896 355.428 181.349 357.853 181.081 360.317C180.484 365.716 181.433 370.273 183.83 373.527C185.664 375.925 188.207 377.684 191.098 378.551L192.4 378.138C189.243 377.415 186.432 375.624 184.443 373.068Z" fill="#F6D4A0"/>
<path d="M294.602 408.189C304.557 421.254 318.771 428.568 333.659 428.568C335.997 428.567 338.332 428.39 340.643 428.04C348.501 426.88 355.9 423.62 362.059 418.604C368.218 413.589 372.908 407.003 375.634 399.543C386.854 368.282 441.626 353.738 442.178 353.593L441.986 352.827C441.427 352.973 386.272 367.623 374.915 399.26C372.235 406.59 367.626 413.062 361.574 417.99C355.521 422.918 348.25 426.12 340.529 427.259C323.451 429.885 306.51 422.572 295.207 407.707C291.555 402.856 287.31 398.482 282.57 394.688L281.674 394.971C286.541 398.795 290.887 403.239 294.602 408.189Z" fill="#F6D4A0"/>
<path d="M202.824 379.692C226.564 378.161 257.596 376.223 281.704 395.009L282.6 394.726C258.247 375.396 226.779 377.395 202.801 378.919C199.323 379.225 195.818 378.967 192.423 378.153L191.122 378.566C194.916 379.677 198.887 380.059 202.824 379.692Z" fill="#F6D4A0"/>
<path d="M212.994 366.068C208.682 360.546 211.363 353.401 211.393 353.332L210.674 353.057C210.674 353.133 207.809 360.661 212.389 366.535C213.606 368.055 215.12 369.311 216.839 370.227L217.842 369.897C215.961 368.998 214.305 367.69 212.994 366.068Z" fill="#F6D4A0"/>
<path d="M338.268 405.777C321.42 413.489 309.113 403.64 294.846 392.244L293.23 390.95L292.418 391.279L294.371 392.811C304.847 401.189 314.888 409.208 326.62 409.208C330.764 409.169 334.849 408.226 338.59 406.443C367.071 393.424 378.888 364.207 381.806 355.676L380.879 356.02C377.678 365.149 365.877 393.125 338.268 405.777Z" fill="#F6D4A0"/>
<path d="M244.814 372.762C264.933 370.258 279.575 381.063 292.418 391.28L293.23 390.95C280.211 380.558 265.331 369.438 244.722 372.004C232.584 373.535 223.585 372.808 217.842 369.928L216.838 370.258C222.705 373.497 232.048 374.347 244.814 372.762Z" fill="#F6D4A0"/>
<path d="M382.565 353.325L381.799 353.125C381.799 353.187 381.485 354.251 380.85 356.051L381.776 355.706C382.312 354.244 382.55 353.378 382.565 353.325Z" fill="#F6D4A0"/>
<path d="M321.742 382.22C323.953 382.711 326.209 382.967 328.474 382.986C333.32 383.06 338.066 381.605 342.037 378.827C346.578 375.641 349.695 371.023 351.839 366.574L350.813 366.942C348.738 371.062 345.774 375.259 341.623 378.199C336.193 382.028 329.569 383.116 321.926 381.485C319.353 380.933 316.963 380.336 314.735 379.716C314.337 379.869 313.969 380.03 313.594 380.183C316.067 380.895 318.778 381.584 321.742 382.22Z" fill="#F6D4A0"/>
<path d="M232.261 365.149L233.188 364.835C232.642 364.559 232.185 364.135 231.871 363.61C229.622 359.74 227.676 355.702 226.051 351.532H225.239C226.889 355.841 228.887 360.008 231.212 363.993C231.476 364.448 231.833 364.843 232.261 365.149Z" fill="#F6D4A0"/>
<path d="M225.868 351.028L225.508 351.15H225.921C225.909 351.107 225.891 351.066 225.868 351.028Z" fill="#F6D4A0"/>
<path d="M225.239 351.517H226.051L225.913 351.135H225.507L225.147 351.257L225.239 351.517Z" fill="#F6D4A0"/>
<path d="M252.725 363.127C261.487 360.776 270.554 358.349 275.7 360.233C279.415 361.596 282.593 363.847 286.2 366.451C292.327 370.847 299.763 376.147 313.594 380.167C313.961 380.014 314.36 379.853 314.735 379.7C300.429 375.679 292.878 370.28 286.644 365.831C282.961 363.189 279.752 360.914 275.968 359.513C270.608 357.552 261.418 360.011 252.549 362.385C244.378 364.575 236.605 366.643 233.22 364.835L232.293 365.149C235.693 367.669 243.98 365.463 252.725 363.127Z" fill="#F6D4A0"/>
<path d="M356.044 353.279L355.278 353.172C354.47 357.961 352.963 362.606 350.806 366.957L351.832 366.589C353.847 362.37 355.265 357.89 356.044 353.279Z" fill="#F6D4A0"/>
<path d="M321.106 369.736H321.665C322.708 369.714 323.733 369.468 324.672 369.013C325.61 368.558 326.439 367.906 327.103 367.102C334.876 358.586 334.332 355.492 334.302 355.362L333.536 355.515C333.536 355.515 333.911 358.486 326.521 366.581C325.881 367.375 325.06 368.004 324.128 368.415C323.195 368.827 322.177 369.009 321.16 368.947C315.11 368.473 309.136 359.489 309.083 359.405L308.439 359.826C308.707 360.232 314.689 369.223 321.106 369.736Z" fill="#F6D4A0"/>
<path d="M450.026 400.929C443.034 406.183 438.539 411.314 433.622 417.907C432.374 419.837 431.187 421.737 430.046 423.598C426.217 429.724 422.625 435.575 417.593 440.446L418.734 440.4C423.513 435.583 427.028 429.916 430.697 423.988C431.838 422.135 432.994 420.228 434.25 418.329C439.136 411.811 443.563 406.719 450.478 401.534C455.073 398.271 458.826 396.38 462.777 395.407C474.878 390.514 487.659 389.173 500.472 388.982L500.426 388.216C487.552 388.408 474.709 389.748 462.54 394.687C458.542 395.675 454.683 397.605 450.026 400.929Z" fill="#F6D4A0"/>
<path d="M438.324 438.976L439.458 438.838C450.179 426.524 463.643 417.893 478.515 413.987C484.139 412.366 489.931 411.402 495.777 411.115L496.206 410.349C490.146 410.611 484.138 411.59 478.308 413.267C463.038 417.265 449.26 426.202 438.324 438.976Z" fill="#F6D4A0"/>
<path d="M487.637 352.658C489.284 352.183 490.701 351.816 491.765 351.532H491.574L487.553 352.536L487.637 352.658Z" fill="white"/>
<path d="M375.979 440.76C357.346 440.423 337.917 439.55 318.38 438.302C320.877 439.144 323.463 439.892 326.138 440.546C342.497 444.594 359.586 444.667 375.979 440.76Z" fill="white"/>
<path d="M495.073 351.517H519.687L520.009 351.135H495.035L495.112 351.51L495.073 351.517Z" fill="white"/>
<path d="M491.765 351.517L493.297 351.135H493.105L491.574 351.517H491.765Z" fill="white"/>
<path d="M326.138 440.546C323.463 439.892 320.877 439.144 318.38 438.302L315.562 438.125C318.965 439.37 322.435 440.426 325.954 441.288C334.396 443.359 343.056 444.405 351.748 444.405C360.903 444.43 370.019 443.22 378.85 440.806L375.979 440.76C359.586 444.667 342.496 444.593 326.138 440.546Z" fill="white"/>
<path d="M488.073 353.332C492.423 352.084 494.82 351.578 495.073 351.532H491.765C490.662 351.816 489.283 352.183 487.637 352.658L488.073 353.332Z" fill="white"/>
<path d="M494.966 350.752C494.966 350.752 494.361 350.874 493.304 351.127H495.035L494.966 350.752Z" fill="white"/>
<path d="M495.073 351.517L494.996 351.142H493.266L491.734 351.525L495.073 351.517Z" fill="white"/>
<path d="M414.577 443.134C408.351 447.928 400.945 450.677 390.568 452.063C363.71 455.127 335.244 453.304 303.546 446.373L303.378 447.139C325.258 451.918 345.606 454.292 364.959 454.292C373.549 454.298 382.133 453.812 390.668 452.837C401.182 451.435 408.703 448.633 415.052 443.754C416.341 442.717 417.571 441.607 418.735 440.43L417.594 440.476C416.614 441.388 415.641 442.284 414.577 443.134Z" fill="white"/>
<path d="M428.169 453.373L428.836 453.756C431.888 448.449 435.446 443.448 439.458 438.823L438.324 438.96C434.506 443.444 431.107 448.269 428.169 453.373Z" fill="white"/>
<path d="M458.734 453.733L458.796 453.641H458.589L458.734 453.733Z" fill="white"/>
<path d="M520.223 350.897L520.008 351.15H520.514L520.223 350.897Z" fill="white"/>
<path d="M520.69 351.517L520.805 351.38L520.514 351.135H520.001L519.679 351.517H520.69Z" fill="white"/>
<path d="M239.223 411.781C244.897 411.775 250.425 409.983 255.022 406.658L303.959 371.345C304.161 371.202 304.312 370.998 304.39 370.763C304.469 370.528 304.47 370.274 304.394 370.038C304.318 369.802 304.168 369.597 303.968 369.452C303.767 369.307 303.525 369.229 303.277 369.231H198.351L209.7 411.781H239.223Z" fill="white"/>
<path d="M239.223 412.164H209.677C209.592 412.164 209.509 412.136 209.442 412.083C209.376 412.03 209.329 411.956 209.31 411.873L197.96 369.331C197.944 369.274 197.943 369.215 197.955 369.158C197.967 369.1 197.992 369.047 198.029 369.001C198.064 368.955 198.109 368.917 198.161 368.89C198.212 368.864 198.269 368.849 198.328 368.848H303.308C303.641 368.837 303.968 368.935 304.24 369.126C304.512 369.318 304.714 369.592 304.816 369.909C304.919 370.226 304.915 370.567 304.806 370.881C304.697 371.196 304.488 371.466 304.212 371.651L255.283 406.971C250.611 410.354 244.99 412.171 239.223 412.164ZM209.968 411.398H239.223C244.828 411.408 250.293 409.641 254.831 406.351L303.768 371.031C303.914 370.941 304.027 370.805 304.086 370.643C304.146 370.482 304.149 370.305 304.096 370.141C304.043 369.978 303.937 369.837 303.794 369.741C303.651 369.645 303.48 369.601 303.308 369.614H198.825L209.968 411.398Z" fill="#28192D"/>
<path d="M233.946 411.781C239.633 411.78 245.175 409.988 249.784 406.658L298.713 371.345C298.915 371.202 299.066 370.998 299.144 370.763C299.223 370.528 299.224 370.274 299.148 370.038C299.072 369.802 298.922 369.597 298.722 369.452C298.521 369.307 298.279 369.229 298.031 369.231H193.059L204.401 411.781H233.946Z" fill="white"/>
<path d="M233.947 412.164H204.401C204.316 412.163 204.234 412.134 204.168 412.081C204.101 412.029 204.054 411.955 204.034 411.873L192.684 369.331C192.67 369.274 192.669 369.216 192.681 369.159C192.693 369.102 192.718 369.048 192.753 369.002C192.789 368.955 192.836 368.917 192.889 368.891C192.942 368.864 193 368.85 193.059 368.849H298.032C298.365 368.836 298.693 368.932 298.967 369.123C299.24 369.314 299.444 369.588 299.547 369.905C299.65 370.223 299.647 370.565 299.538 370.88C299.429 371.195 299.22 371.466 298.943 371.651L250.007 406.972C245.336 410.355 239.714 412.173 233.947 412.164ZM204.7 411.398H233.947C239.555 411.407 245.021 409.64 249.562 406.351L298.491 371.031C298.628 370.937 298.73 370.801 298.783 370.643C298.835 370.486 298.835 370.316 298.783 370.158C298.733 369.995 298.631 369.853 298.493 369.755C298.354 369.657 298.187 369.607 298.017 369.614H193.557L204.7 411.398Z" fill="#28192D"/>
<path d="M240.602 404.214H245.963C246.12 404.212 246.272 404.161 246.399 404.069L282.309 378.153C282.428 378.055 282.514 377.924 282.557 377.777C282.601 377.63 282.598 377.473 282.551 377.327C282.504 377.181 282.414 377.052 282.293 376.958C282.172 376.863 282.026 376.807 281.873 376.797H214.25L221.563 404.214H240.602Z" fill="#A6C2EA"/>
<path d="M280.057 381.737H244.132V382.503H280.057V381.737Z" fill="white"/>
<path d="M266.656 390.935H249.318V391.701H266.656V390.935Z" fill="white"/>
<path d="M174.434 380.734C171.72 378.704 168.411 377.627 165.022 377.671C159.661 377.901 152.769 375.151 150.571 375.075C148.373 374.998 147.638 379.593 152.102 381.492C156.567 383.392 168.698 383.407 168.698 383.407L174.434 380.734Z" fill="white"/>
<path d="M168.69 383.797C168.193 383.797 156.437 383.797 151.949 381.852C149.055 380.619 148.12 378.237 148.518 376.537C148.577 376.031 148.819 375.565 149.199 375.226C149.578 374.887 150.069 374.699 150.579 374.699C151.927 374.862 153.258 375.149 154.553 375.557C157.54 376.323 161.629 377.441 165.007 377.295C168.491 377.241 171.894 378.348 174.679 380.443C174.729 380.483 174.768 380.534 174.792 380.593C174.816 380.652 174.825 380.716 174.817 380.78C174.811 380.845 174.787 380.907 174.75 380.961C174.712 381.014 174.662 381.058 174.603 381.086L168.851 383.759C168.801 383.782 168.746 383.795 168.69 383.797ZM150.51 375.457C150.19 375.489 149.892 375.631 149.666 375.859C149.439 376.087 149.299 376.386 149.269 376.705C148.955 378.099 149.759 380.09 152.248 381.147C156.391 382.916 167.519 383.024 168.606 383.031L173.684 380.665C171.137 378.93 168.119 378.02 165.037 378.061C161.553 378.207 157.379 377.104 154.362 376.3C153.112 375.913 151.83 375.633 150.533 375.465L150.51 375.457Z" fill="#28192D"/>
<path d="M294.141 347.344C294.754 351.533 293.904 352.965 293.904 352.965C289.194 363.15 252.625 380.412 220.238 385.252C185.293 390.475 164.593 393.998 177.857 380.833C191.121 367.669 260.023 336.017 260.023 336.017C260.023 336.017 269.612 336.844 275.11 339.501" fill="white"/>
<path d="M181.502 390.314C177.045 390.314 174.441 389.648 173.66 388.078C172.879 386.508 174.074 384.034 177.574 380.558C190.731 367.5 259.158 335.986 259.847 335.664C259.91 335.65 259.976 335.65 260.039 335.664C260.437 335.664 269.765 336.522 275.256 339.187C275.301 339.208 275.343 339.237 275.377 339.274C275.411 339.311 275.437 339.354 275.454 339.401C275.471 339.448 275.479 339.498 275.476 339.548C275.474 339.598 275.461 339.647 275.44 339.693C275.418 339.739 275.388 339.78 275.35 339.814C275.313 339.848 275.269 339.875 275.221 339.892C275.174 339.909 275.123 339.916 275.072 339.914C275.022 339.911 274.972 339.898 274.926 339.876C269.857 337.418 261.141 336.53 260.077 336.438C257.174 337.77 190.953 368.388 178.133 381.132C174.993 384.256 173.722 386.493 174.365 387.764C176.241 391.494 193.128 388.966 216.486 385.466L220.162 384.915C235.126 382.679 252.327 377.532 267.268 370.801C281.467 364.421 291.285 357.705 293.536 352.842C293.536 352.796 294.302 351.387 293.743 347.435C293.73 347.336 293.756 347.235 293.816 347.155C293.876 347.075 293.966 347.021 294.065 347.006C294.165 346.993 294.266 347.019 294.348 347.079C294.429 347.139 294.484 347.228 294.501 347.328C295.121 351.594 294.248 353.133 294.218 353.194C289.531 363.319 253.766 380.665 220.277 385.673L216.601 386.225C200.196 388.645 188.548 390.314 181.502 390.314Z" fill="#28192D"/>
<path d="M187.63 388.645C186.818 391.349 184.835 394.527 180.224 396.794C170.59 401.534 154.837 406.428 149.331 397.713C143.824 388.998 150.786 384.173 165.918 380.581C170.374 379.429 175.016 379.189 179.566 379.877" fill="white"/>
<path d="M159.952 402.89C155.227 402.89 151.268 401.473 149.024 397.912C147.079 394.849 146.604 392.191 147.569 389.825C149.192 385.835 155.005 382.779 165.849 380.213C170.35 379.052 175.038 378.81 179.634 379.501C179.734 379.52 179.823 379.577 179.881 379.66C179.94 379.743 179.964 379.845 179.948 379.945C179.928 380.044 179.871 380.132 179.788 380.19C179.706 380.248 179.604 380.273 179.504 380.259C175.005 379.584 170.416 379.821 166.01 380.956C155.426 383.468 149.79 386.371 148.266 390.146C147.393 392.268 147.852 394.688 149.652 397.537C152.026 401.289 156.544 402.775 163.177 401.948C169.809 401.121 176.632 398.165 180.025 396.48C183.785 394.634 186.213 391.969 187.239 388.569C187.253 388.518 187.277 388.471 187.309 388.43C187.341 388.389 187.381 388.355 187.427 388.329C187.473 388.304 187.523 388.287 187.574 388.281C187.626 388.275 187.679 388.279 187.729 388.293C187.779 388.307 187.826 388.331 187.868 388.363C187.909 388.395 187.943 388.435 187.969 388.481C187.994 388.526 188.01 388.577 188.017 388.628C188.023 388.68 188.019 388.733 188.005 388.783C186.925 392.352 184.298 395.247 180.4 397.207C173.722 400.424 166.186 402.89 159.952 402.89Z" fill="#28192D"/>
<path d="M169.433 400.876C165.933 402.653 151.337 409.828 146.719 409.185C142.415 408.588 153.274 402.224 160.19 399.497" fill="white"/>
<path d="M147.354 409.606C147.124 409.606 146.894 409.593 146.665 409.568C145.669 409.422 145.401 408.97 145.363 408.618C145.095 406.321 154.92 401.159 160.051 399.137C160.146 399.101 160.251 399.104 160.344 399.144C160.436 399.184 160.51 399.258 160.549 399.352C160.568 399.398 160.577 399.448 160.576 399.499C160.576 399.549 160.565 399.599 160.545 399.645C160.525 399.691 160.497 399.733 160.46 399.768C160.424 399.803 160.382 399.831 160.335 399.849C153.802 402.43 145.968 407.209 146.121 408.526C146.121 408.641 146.389 408.756 146.772 408.81C151.52 409.468 167.449 401.45 169.257 400.531C169.347 400.486 169.452 400.478 169.548 400.509C169.644 400.541 169.724 400.609 169.77 400.699C169.793 400.744 169.808 400.793 169.812 400.843C169.816 400.893 169.81 400.944 169.795 400.992C169.779 401.04 169.754 401.084 169.72 401.122C169.687 401.16 169.647 401.191 169.601 401.213C166.76 402.66 152.822 409.606 147.354 409.606Z" fill="#28192D"/>
<path d="M159.791 399.627C154.576 402.216 142.369 407.952 137.881 407.286C132.742 406.566 147.37 397.789 154.469 395.492" fill="white"/>
<path d="M138.616 407.753C138.36 407.753 138.105 407.737 137.851 407.707C136.763 407.554 136.487 407.041 136.457 406.642C136.212 403.885 148.588 397.031 154.377 395.155C154.424 395.139 154.474 395.133 154.524 395.137C154.573 395.141 154.622 395.155 154.666 395.178C154.71 395.201 154.749 395.232 154.781 395.27C154.813 395.308 154.837 395.352 154.852 395.4C154.869 395.448 154.875 395.498 154.872 395.549C154.869 395.599 154.855 395.648 154.832 395.693C154.809 395.738 154.778 395.778 154.739 395.811C154.7 395.843 154.655 395.868 154.607 395.882C147.944 398.034 137.054 404.72 137.215 406.566C137.215 406.803 137.743 406.903 137.981 406.933C142.369 407.546 154.615 401.779 159.669 399.275C159.714 399.253 159.764 399.24 159.814 399.237C159.864 399.233 159.915 399.24 159.962 399.257C160.01 399.273 160.054 399.299 160.092 399.332C160.129 399.365 160.16 399.406 160.182 399.451C160.225 399.543 160.231 399.648 160.198 399.743C160.165 399.839 160.096 399.918 160.006 399.964C153.933 402.951 143.51 407.753 138.616 407.753Z" fill="#28192D"/>
<path d="M154.468 395.53C148.548 398.356 138.975 402.522 135.115 401.986C129.594 401.22 147.254 391.548 153.541 390.185" fill="white"/>
<path d="M135.867 402.415C135.611 402.416 135.355 402.398 135.101 402.361C133.983 402.208 133.73 401.695 133.715 401.289C133.6 398.371 148.404 390.92 153.496 389.802C153.547 389.791 153.599 389.791 153.649 389.8C153.7 389.81 153.748 389.829 153.791 389.857C153.834 389.885 153.871 389.921 153.9 389.964C153.929 390.006 153.949 390.054 153.96 390.104C153.97 390.155 153.971 390.206 153.961 390.257C153.952 390.307 153.933 390.356 153.905 390.399C153.876 390.442 153.84 390.479 153.798 390.508C153.755 390.537 153.708 390.557 153.657 390.568C147.845 391.839 134.404 399.336 134.511 401.289C134.511 401.519 135.063 401.611 135.231 401.634C139.061 402.17 148.856 397.843 154.377 395.216C154.423 395.194 154.473 395.182 154.523 395.179C154.574 395.176 154.624 395.184 154.672 395.201C154.72 395.218 154.764 395.244 154.801 395.279C154.839 395.313 154.869 395.354 154.89 395.4C154.912 395.445 154.925 395.494 154.927 395.544C154.93 395.594 154.922 395.644 154.905 395.692C154.888 395.739 154.862 395.782 154.827 395.819C154.793 395.855 154.752 395.885 154.707 395.906C148.251 398.923 140.018 402.415 135.867 402.415Z" fill="#28192D"/>
<path d="M153.542 390.185C147.652 392.896 140.216 396.488 136.77 396.005C131.547 395.239 146.871 386.746 153.817 384.625" fill="white"/>
<path d="M137.445 396.433C137.201 396.434 136.958 396.419 136.717 396.387C135.622 396.234 135.354 395.736 135.323 395.353C135.116 392.742 147.952 386.018 153.703 384.264C153.751 384.249 153.801 384.243 153.851 384.248C153.901 384.252 153.95 384.267 153.994 384.29C154.038 384.314 154.077 384.346 154.109 384.385C154.141 384.424 154.164 384.469 154.178 384.517C154.207 384.613 154.196 384.717 154.149 384.806C154.102 384.895 154.021 384.962 153.925 384.992C147.286 387.021 135.944 393.561 136.081 395.292C136.081 395.438 136.365 395.568 136.847 395.629C139.911 396.066 146.75 392.918 152.21 390.383L153.405 389.832C153.497 389.789 153.603 389.785 153.698 389.82C153.794 389.855 153.871 389.927 153.914 390.019C153.957 390.112 153.961 390.217 153.926 390.313C153.89 390.408 153.819 390.486 153.726 390.529L152.532 391.08C147.041 393.638 140.914 396.433 137.445 396.433Z" fill="#28192D"/>
<path d="M304.181 215.49L308.723 232.621L308.355 233.87C307.807 235.718 307.692 237.668 308.021 239.568C308.349 241.468 309.112 243.266 310.25 244.822C311.388 246.379 312.87 247.652 314.58 248.541C316.29 249.431 318.183 249.914 320.111 249.952C322.415 249.998 324.687 249.406 326.676 248.243C328.665 247.079 330.294 245.389 331.384 243.358L342.197 226.51C342.197 226.51 329.714 215.551 322.332 195.777C314.949 176.003 301.356 195.21 304.181 215.49Z" fill="white"/>
<path d="M320.363 250.328H320.118C318.132 250.288 316.181 249.791 314.418 248.874C312.656 247.957 311.129 246.646 309.956 245.042C308.784 243.438 307.997 241.585 307.658 239.627C307.32 237.669 307.437 235.66 308.003 233.755L308.339 232.614L303.829 215.59V215.544C302.259 204.232 306.226 189.092 313.517 187.246C315.592 186.725 319.544 187.116 322.707 195.67C329.959 215.115 342.342 226.143 342.465 226.25C342.535 226.308 342.582 226.391 342.594 226.482C342.607 226.572 342.586 226.665 342.534 226.74L331.72 243.589C330.618 245.637 328.978 247.347 326.977 248.534C324.976 249.722 322.69 250.342 320.363 250.328ZM304.556 215.414L309.09 232.522C309.113 232.589 309.113 232.662 309.09 232.729L308.722 233.977C308.192 235.769 308.081 237.658 308.401 239.499C308.72 241.34 309.459 243.083 310.562 244.591C311.665 246.099 313.101 247.332 314.758 248.194C316.416 249.057 318.25 249.525 320.118 249.562H320.363C322.557 249.569 324.711 248.977 326.594 247.85C328.476 246.723 330.016 245.104 331.046 243.167L341.699 226.572C339.915 224.91 328.734 214.02 321.979 195.9C319.773 190.003 316.833 187.2 313.677 187.989C308.018 189.421 302.695 201.973 304.556 215.414Z" fill="#28192D"/>
<path d="M314.642 218.906C316.764 215.031 323.067 209.953 324.169 205.634C324.494 204.236 324.625 202.801 324.56 201.368C323.733 199.676 322.952 197.891 322.262 196.007C315.247 177.198 302.19 195.877 304.87 215.153L309.037 230.615C310.67 226.604 312.542 222.694 314.642 218.906Z" fill="#28192D"/>
<path d="M291.017 168.752C291.017 168.752 283.864 176.724 287.617 193.488C291.369 210.252 296.11 222.704 307.957 220.292C319.804 217.88 325.058 200.985 320.034 181.947C315.01 162.908 300.544 163.659 291.017 168.752Z" fill="white"/>
<path d="M305.093 220.958C295.474 220.958 290.933 209.968 287.257 193.572C283.504 176.808 290.443 168.828 290.741 168.498C290.772 168.464 290.808 168.436 290.849 168.414C293.912 166.783 301.777 163.352 309.297 166.622C314.658 168.92 318.365 174.058 320.417 181.824C323.626 193.978 322.761 205.703 318.12 213.223C315.623 217.251 312.146 219.817 308.057 220.659C307.082 220.86 306.089 220.96 305.093 220.958ZM291.27 169.058C290.703 169.739 284.492 177.711 288.007 193.403C293.437 217.665 299.885 221.54 307.919 219.894C311.794 219.128 315.102 216.646 317.484 212.802C322.026 205.481 322.845 193.97 319.697 182.023C317.714 174.495 314.115 169.548 309.014 167.327C301.831 164.21 294.264 167.465 291.27 169.058Z" fill="#28192D"/>
<path d="M321.404 197.493C321.02 196.741 320.717 195.951 320.501 195.135C320.164 194.108 320.263 193.511 319.107 193.656C318.892 193.649 318.679 193.702 318.492 193.809C318.306 193.915 318.152 194.072 318.05 194.261C317.667 194.897 317.728 196.49 317.437 197.279C317.086 198.245 316.567 199.142 315.906 199.929C314.665 201.361 313.118 201.912 311.349 202.418C310.154 202.85 308.903 203.108 307.635 203.183C306.481 203.118 305.332 202.98 304.196 202.77C302.344 202.493 300.456 202.949 298.935 204.041C298.205 204.525 297.408 204.896 296.568 205.144C294.845 205.603 293.137 205.634 291.728 204.455C291.129 203.949 290.559 203.409 290.021 202.839C293.536 214.579 298.445 222.199 307.964 220.246C316.243 218.546 321.289 209.793 321.879 198.183C321.708 197.962 321.549 197.732 321.404 197.493Z" fill="#A6C2EA"/>
<path d="M305.093 220.958C295.474 220.958 290.933 209.968 287.257 193.572C283.504 176.808 290.443 168.828 290.741 168.498C290.772 168.464 290.808 168.436 290.849 168.414C293.912 166.783 301.777 163.352 309.297 166.622C314.658 168.92 318.365 174.058 320.417 181.824C323.626 193.978 322.761 205.703 318.12 213.223C315.623 217.251 312.146 219.817 308.057 220.659C307.082 220.86 306.089 220.96 305.093 220.958ZM291.27 169.058C290.703 169.739 284.492 177.711 288.007 193.403C293.437 217.665 299.885 221.54 307.919 219.894C311.794 219.128 315.102 216.646 317.484 212.802C322.026 205.481 322.845 193.97 319.697 182.023C317.714 174.495 314.115 169.548 309.014 167.327C301.831 164.21 294.264 167.465 291.27 169.058Z" fill="#28192D"/>
<path d="M321.113 195.556C323.349 195.019 326.865 193.358 327.584 188.15C328.664 180.369 319.926 181.089 318.486 185.393" fill="white"/>
<path d="M321.114 195.939C321.028 195.939 320.944 195.911 320.876 195.858C320.807 195.806 320.759 195.731 320.738 195.648C320.715 195.548 320.732 195.444 320.785 195.356C320.838 195.269 320.923 195.206 321.022 195.18C323.48 194.598 326.544 192.883 327.202 188.097C327.608 185.179 326.597 183.21 324.43 182.736C322.4 182.261 319.605 183.295 318.855 185.546C318.823 185.643 318.754 185.723 318.664 185.769C318.574 185.815 318.469 185.823 318.372 185.791C318.275 185.758 318.195 185.688 318.149 185.596C318.103 185.505 318.095 185.399 318.127 185.301C318.893 182.919 321.956 181.372 324.606 181.993C327.256 182.613 328.435 184.918 327.968 188.227C327.202 193.733 323.373 195.433 321.198 195.962L321.114 195.939Z" fill="#28192D"/>
<path d="M323.273 184.611C323.273 184.611 325.961 188.364 324.759 191.504L323.273 184.611Z" fill="white"/>
<path d="M324.76 191.864C324.714 191.872 324.667 191.872 324.622 191.864C324.574 191.847 324.531 191.819 324.494 191.785C324.457 191.75 324.427 191.708 324.407 191.662C324.386 191.616 324.375 191.566 324.374 191.515C324.372 191.464 324.381 191.414 324.4 191.367C325.51 188.487 322.983 184.895 322.96 184.857C322.931 184.816 322.91 184.769 322.898 184.72C322.887 184.671 322.886 184.62 322.894 184.57C322.903 184.52 322.921 184.472 322.948 184.43C322.975 184.387 323.01 184.35 323.052 184.321C323.092 184.292 323.138 184.271 323.187 184.26C323.236 184.249 323.286 184.247 323.335 184.256C323.385 184.264 323.432 184.283 323.474 184.31C323.516 184.337 323.552 184.372 323.58 184.413C323.695 184.574 326.376 188.372 325.112 191.642C325.083 191.711 325.033 191.768 324.97 191.808C324.907 191.848 324.834 191.867 324.76 191.864Z" fill="#28192D"/>
<path d="M292.533 195.563C293.078 195.563 293.521 195.011 293.521 194.33C293.521 193.649 293.078 193.097 292.533 193.097C291.987 193.097 291.545 193.649 291.545 194.33C291.545 195.011 291.987 195.563 292.533 195.563Z" fill="#28192D"/>
<path d="M307.972 193.013C308.517 193.013 308.96 192.461 308.96 191.78C308.96 191.099 308.517 190.547 307.972 190.547C307.426 190.547 306.984 191.099 306.984 191.78C306.984 192.461 307.426 193.013 307.972 193.013Z" fill="#28192D"/>
<path d="M298.583 189.812C298.583 189.812 299.272 196.283 297.924 198.703C297.642 199.228 297.298 199.716 296.898 200.158C296.753 200.307 296.647 200.49 296.589 200.689C296.531 200.888 296.522 201.099 296.563 201.303C296.605 201.506 296.695 201.697 296.827 201.858C296.959 202.019 297.127 202.145 297.319 202.226C298.446 202.78 299.715 202.976 300.957 202.785" fill="white"/>
<path d="M300.083 203.268C299.074 203.234 298.082 203 297.165 202.579C296.918 202.475 296.7 202.313 296.529 202.106C296.358 201.899 296.24 201.654 296.185 201.392C296.128 201.121 296.138 200.84 296.212 200.573C296.287 200.307 296.425 200.062 296.614 199.86C296.997 199.448 297.324 198.987 297.587 198.489C298.866 196.192 298.207 189.889 298.207 189.82C298.196 189.719 298.226 189.619 298.289 189.54C298.352 189.461 298.444 189.41 298.544 189.399C298.645 189.39 298.746 189.421 298.824 189.486C298.903 189.55 298.954 189.642 298.965 189.743C298.965 190.011 299.647 196.36 298.261 198.864C297.962 199.418 297.597 199.932 297.173 200.396C297.069 200.502 296.993 200.633 296.952 200.776C296.91 200.919 296.905 201.07 296.936 201.215C296.966 201.356 297.029 201.488 297.121 201.598C297.213 201.709 297.331 201.796 297.464 201.851C298.514 202.379 299.702 202.569 300.864 202.395C300.915 202.383 300.967 202.382 301.018 202.39C301.068 202.399 301.117 202.417 301.161 202.445C301.205 202.472 301.243 202.508 301.273 202.55C301.302 202.592 301.324 202.639 301.335 202.69C301.347 202.74 301.348 202.792 301.34 202.843C301.331 202.894 301.313 202.942 301.285 202.986C301.258 203.03 301.222 203.068 301.18 203.098C301.138 203.128 301.091 203.149 301.041 203.161C300.727 203.237 300.406 203.273 300.083 203.268Z" fill="#28192D"/>
<path d="M288.336 185.049C288.336 185.049 291.767 183.739 294.509 184.076L288.336 185.049Z" fill="white"/>
<path d="M288.336 185.431C288.235 185.448 288.131 185.424 288.046 185.365C287.962 185.305 287.906 185.215 287.888 185.113C287.871 185.011 287.895 184.907 287.954 184.823C288.014 184.739 288.105 184.682 288.206 184.665C288.344 184.611 291.752 183.332 294.555 183.677C294.605 183.683 294.654 183.699 294.698 183.724C294.742 183.749 294.781 183.782 294.812 183.822C294.843 183.861 294.867 183.907 294.88 183.956C294.894 184.005 294.898 184.056 294.892 184.106C294.886 184.156 294.87 184.205 294.845 184.249C294.82 184.293 294.787 184.332 294.747 184.363C294.707 184.394 294.662 184.418 294.613 184.431C294.564 184.445 294.513 184.449 294.463 184.443C291.844 184.121 288.505 185.377 288.474 185.385C288.433 185.411 288.385 185.427 288.336 185.431Z" fill="#28192D"/>
<path d="M304.281 182.184C304.281 182.184 308.371 180.239 312.391 182.184H304.281Z" fill="white"/>
<path d="M312.392 182.567C312.336 182.578 312.279 182.578 312.223 182.567C308.394 180.729 304.488 182.567 304.45 182.567C304.404 182.589 304.355 182.601 304.304 182.603C304.254 182.606 304.203 182.598 304.155 182.581C304.108 182.564 304.064 182.538 304.026 182.504C303.989 182.47 303.958 182.429 303.937 182.383C303.915 182.337 303.903 182.288 303.9 182.237C303.898 182.187 303.905 182.136 303.922 182.088C303.94 182.041 303.966 181.997 304 181.96C304.034 181.922 304.075 181.892 304.121 181.87C304.289 181.793 308.417 179.879 312.545 181.87C312.591 181.891 312.632 181.92 312.666 181.957C312.7 181.994 312.726 182.037 312.743 182.084C312.761 182.131 312.768 182.181 312.766 182.231C312.763 182.281 312.75 182.33 312.729 182.375C312.694 182.434 312.645 182.482 312.586 182.516C312.526 182.55 312.46 182.567 312.392 182.567Z" fill="#28192D"/>
<path d="M311.779 361.657C309.062 359.626 305.751 358.55 302.359 358.594C296.998 358.823 290.106 356.074 287.908 355.998C285.71 355.921 284.983 360.524 289.44 362.415C293.897 364.307 306.035 364.33 306.035 364.33L311.779 361.657Z" fill="white"/>
<path d="M306.035 364.713C305.537 364.713 293.781 364.674 289.294 362.767C286.399 361.542 285.464 359.153 285.863 357.46C285.919 356.953 286.16 356.485 286.54 356.144C286.92 355.804 287.413 355.615 287.923 355.615C289.27 355.786 290.601 356.075 291.897 356.48C294.884 357.246 298.958 358.364 302.343 358.211C305.83 358.159 309.235 359.266 312.024 361.358C312.074 361.399 312.113 361.452 312.137 361.513C312.161 361.573 312.169 361.638 312.161 361.703C312.154 361.768 312.129 361.829 312.09 361.882C312.051 361.934 311.999 361.975 311.939 362.002L306.196 364.674C306.145 364.698 306.09 364.711 306.035 364.713ZM287.854 356.38C287.535 356.412 287.236 356.553 287.009 356.779C286.782 357.005 286.639 357.302 286.606 357.621C286.299 359.022 287.096 361.006 289.592 362.063C293.735 363.832 304.863 363.939 305.95 363.947L311.028 361.58C308.484 359.841 305.463 358.931 302.382 358.976C298.897 359.122 294.723 358.027 291.698 357.215C290.448 356.828 289.167 356.549 287.869 356.38H287.854Z" fill="#28192D"/>
<path d="M425.183 297.044C425.183 297.044 431.164 321.957 431.754 331.606C432.344 341.256 392.528 360.945 357.583 366.168C322.638 371.391 301.938 374.914 315.202 361.749C328.466 348.585 390.966 322.163 390.966 322.163L388.147 311.105L425.183 297.044Z" fill="white"/>
<path d="M318.862 371.237C314.405 371.237 311.802 370.563 311.02 368.993C310.239 367.423 311.426 364.95 314.934 361.481C327.616 348.883 385.766 323.955 390.514 321.941L387.78 311.219C387.756 311.129 387.767 311.033 387.809 310.95C387.852 310.866 387.923 310.802 388.01 310.767L425.038 296.683C425.087 296.663 425.141 296.652 425.195 296.652C425.249 296.652 425.302 296.663 425.352 296.683C425.4 296.709 425.442 296.745 425.475 296.789C425.508 296.832 425.532 296.883 425.543 296.936C425.604 297.189 431.532 321.994 432.129 331.567C432.78 341.937 391.004 361.542 357.629 366.535L353.953 367.087C337.541 369.56 325.893 371.237 318.862 371.237ZM388.607 311.342L391.333 322.063C391.356 322.153 391.345 322.247 391.305 322.33C391.264 322.412 391.196 322.478 391.111 322.515C390.491 322.775 328.527 349.059 315.47 362.017C312.33 365.141 311.059 367.378 311.702 368.656C313.571 372.378 330.465 369.851 353.823 366.359L357.506 365.808C393.133 360.447 431.93 340.895 431.356 331.644C430.804 322.829 425.673 300.896 424.884 297.572L388.607 311.342Z" fill="#28192D"/>
<path d="M369.989 226.488C369.989 226.488 391.991 229.804 409.176 248.797C426.362 267.789 431.164 302.757 431.164 302.757C431.164 302.757 414.591 316.925 400.568 317.224L386.554 317.522L369.989 226.488Z" fill="#A6C2EA"/>
<path d="M386.569 317.905C386.48 317.906 386.392 317.875 386.323 317.817C386.255 317.76 386.209 317.679 386.194 317.591L373.405 247.364C373.386 247.262 373.409 247.158 373.468 247.073C373.527 246.988 373.617 246.93 373.719 246.912C373.82 246.894 373.925 246.916 374.01 246.975C374.094 247.034 374.152 247.124 374.17 247.226L386.899 317.101L400.584 316.81C413.603 316.534 429.035 304.012 430.781 302.565C430.344 299.64 425.121 266.946 408.901 249.026C392.053 230.362 370.157 226.87 369.943 226.817C369.893 226.809 369.844 226.792 369.801 226.765C369.757 226.739 369.719 226.705 369.689 226.664C369.659 226.623 369.637 226.576 369.625 226.527C369.612 226.478 369.61 226.426 369.618 226.376C369.625 226.326 369.642 226.278 369.669 226.234C369.695 226.19 369.729 226.152 369.77 226.122C369.811 226.092 369.858 226.07 369.907 226.058C369.956 226.046 370.008 226.043 370.058 226.051C370.272 226.051 392.39 229.604 409.468 248.474C426.546 267.344 431.524 302.289 431.57 302.642C431.578 302.705 431.57 302.77 431.548 302.83C431.525 302.89 431.488 302.944 431.439 302.986C428.248 305.606 424.875 307.997 421.346 310.139C415.924 313.432 407.928 317.384 400.599 317.545L386.585 317.843L386.569 317.905Z" fill="#28192D"/>
<path d="M324.989 369.56C324.169 372.264 322.186 375.442 317.576 377.709C307.941 382.449 292.196 387.343 286.689 378.628C281.183 369.913 288.137 365.088 303.27 361.473C307.724 360.319 312.366 360.077 316.917 360.761" fill="white"/>
<path d="M297.297 383.813C292.572 383.813 288.612 382.388 286.361 378.835C284.423 375.772 283.948 373.106 284.913 370.74C286.537 366.75 292.35 363.702 303.194 361.129C307.694 359.967 312.383 359.725 316.979 360.417C317.029 360.425 317.076 360.443 317.119 360.47C317.162 360.497 317.199 360.532 317.228 360.573C317.258 360.615 317.278 360.661 317.289 360.711C317.3 360.76 317.302 360.811 317.293 360.861C317.276 360.96 317.221 361.049 317.139 361.107C317.057 361.166 316.956 361.19 316.856 361.175C312.357 360.5 307.768 360.737 303.362 361.872C292.778 364.384 287.134 367.294 285.61 371.062C284.745 373.183 285.204 375.603 287.004 378.452C289.371 382.205 293.897 383.69 300.529 382.863C307.161 382.036 313.977 379.08 317.377 377.395C321.137 375.549 323.565 372.884 324.591 369.484C324.62 369.387 324.686 369.304 324.775 369.256C324.864 369.207 324.969 369.195 325.066 369.224C325.115 369.238 325.161 369.261 325.201 369.293C325.241 369.325 325.274 369.365 325.298 369.41C325.322 369.455 325.337 369.504 325.342 369.555C325.347 369.606 325.342 369.657 325.326 369.706C324.231 373.321 321.673 376.139 317.714 378.084C311.059 381.385 303.515 383.813 297.297 383.813Z" fill="#28192D"/>
<path d="M306.778 381.791C303.27 383.568 288.681 390.744 284.063 390.101C279.751 389.503 290.611 383.139 297.534 380.413" fill="white"/>
<path d="M284.699 390.529C284.468 390.531 284.238 390.515 284.009 390.483C283.006 390.345 282.746 389.894 282.707 389.534C282.432 387.236 292.265 382.074 297.396 380.053C297.443 380.034 297.493 380.025 297.543 380.025C297.593 380.026 297.643 380.037 297.689 380.057C297.736 380.077 297.777 380.105 297.812 380.141C297.848 380.178 297.875 380.22 297.894 380.267C297.912 380.314 297.922 380.364 297.921 380.414C297.92 380.464 297.91 380.514 297.89 380.56C297.87 380.607 297.841 380.648 297.805 380.683C297.769 380.719 297.726 380.746 297.679 380.765C291.147 383.346 283.305 388.132 283.466 389.449C283.466 389.564 283.734 389.671 284.116 389.725C288.849 390.391 304.794 382.365 306.601 381.446C306.692 381.401 306.797 381.393 306.893 381.425C306.989 381.456 307.069 381.525 307.114 381.615C307.138 381.659 307.152 381.708 307.157 381.758C307.161 381.809 307.155 381.859 307.139 381.907C307.123 381.955 307.098 381.999 307.065 382.037C307.032 382.075 306.991 382.106 306.946 382.128C304.097 383.575 290.159 390.529 284.699 390.529Z" fill="#28192D"/>
<path d="M297.143 380.542C291.928 383.131 279.721 388.867 275.233 388.239C270.094 387.527 284.714 378.742 291.821 376.453" fill="white"/>
<path d="M275.968 388.668C275.712 388.668 275.456 388.652 275.202 388.622C274.107 388.469 273.839 387.956 273.801 387.557C273.563 384.8 285.939 377.954 291.721 376.07C291.818 376.038 291.923 376.047 292.013 376.093C292.104 376.138 292.172 376.218 292.204 376.315C292.22 376.363 292.227 376.413 292.224 376.464C292.22 376.514 292.207 376.563 292.184 376.608C292.161 376.653 292.129 376.693 292.091 376.726C292.052 376.758 292.007 376.783 291.959 376.797C285.296 378.949 274.406 385.635 274.567 387.519C274.567 387.756 275.095 387.856 275.332 387.887C279.728 388.499 291.966 382.733 297.021 380.228C297.112 380.184 297.218 380.177 297.314 380.21C297.41 380.243 297.489 380.313 297.534 380.404C297.579 380.496 297.585 380.601 297.552 380.697C297.519 380.794 297.449 380.873 297.358 380.918C291.3 383.866 280.854 388.668 275.968 388.668Z" fill="#28192D"/>
<path d="M291.783 376.453C285.855 379.272 276.29 383.438 272.43 382.902C266.909 382.136 284.569 372.471 290.856 371.1" fill="white"/>
<path d="M273.204 383.33C272.948 383.331 272.692 383.313 272.438 383.276C271.32 383.123 271.067 382.61 271.052 382.204C270.945 379.286 285.748 371.835 290.833 370.717C290.935 370.694 291.041 370.713 291.129 370.769C291.216 370.825 291.278 370.914 291.3 371.015C291.323 371.117 291.304 371.223 291.248 371.311C291.192 371.398 291.103 371.46 291.002 371.483C285.189 372.746 271.749 380.251 271.818 382.204C271.818 382.426 272.377 382.518 272.545 382.541C275.371 382.939 282.172 380.657 291.691 376.123C291.784 376.081 291.889 376.077 291.985 376.111C292.081 376.145 292.159 376.216 292.204 376.307C292.226 376.353 292.239 376.403 292.241 376.453C292.244 376.504 292.237 376.554 292.22 376.602C292.202 376.65 292.176 376.694 292.142 376.731C292.108 376.769 292.066 376.799 292.02 376.82C285.595 379.853 277.362 383.33 273.204 383.33Z" fill="#28192D"/>
<path d="M290.886 371.1C284.997 373.811 277.553 377.403 274.106 376.928C268.883 376.162 284.215 367.662 291.162 365.548" fill="white"/>
<path d="M274.789 377.349C274.546 377.35 274.302 377.335 274.061 377.303C272.966 377.15 272.698 376.66 272.668 376.269C272.461 373.658 285.296 366.934 291.048 365.18C291.098 365.165 291.15 365.161 291.202 365.166C291.255 365.172 291.305 365.188 291.351 365.213C291.397 365.239 291.437 365.273 291.47 365.314C291.503 365.355 291.527 365.401 291.541 365.452C291.556 365.502 291.561 365.555 291.555 365.607C291.549 365.659 291.533 365.709 291.508 365.755C291.483 365.801 291.449 365.841 291.408 365.874C291.367 365.907 291.32 365.931 291.27 365.946C284.63 367.975 273.288 374.515 273.426 376.246C273.426 376.392 273.709 376.522 274.153 376.583C277.255 377.012 284.063 373.872 289.523 371.337L290.718 370.786C290.812 370.746 290.917 370.744 291.013 370.779C291.108 370.815 291.186 370.886 291.231 370.977C291.273 371.07 291.276 371.175 291.24 371.269C291.204 371.364 291.132 371.441 291.04 371.483L289.845 372.034C284.408 374.492 278.289 377.349 274.789 377.349Z" fill="#28192D"/>
<path d="M404.804 323.182C404.804 323.182 396.472 321.872 390.965 322.148L404.804 323.182Z" fill="white"/>
<path d="M404.804 323.58H404.743C404.659 323.58 396.388 322.286 390.958 322.554C390.857 322.554 390.759 322.513 390.687 322.442C390.616 322.37 390.575 322.272 390.575 322.171C390.575 322.069 390.616 321.972 390.687 321.9C390.759 321.828 390.857 321.788 390.958 321.788C396.441 321.512 404.789 322.814 404.873 322.829C404.923 322.837 404.971 322.854 405.014 322.88C405.057 322.906 405.095 322.94 405.125 322.981C405.155 323.021 405.176 323.067 405.188 323.116C405.2 323.165 405.203 323.216 405.195 323.266C405.178 323.356 405.13 323.438 405.058 323.496C404.986 323.553 404.896 323.583 404.804 323.58Z" fill="#28192D"/>
<path d="M275.501 165.627C275.501 165.627 272.437 172.151 280.264 177.313C283.527 179.465 281.367 180.568 296.86 177.987C300.45 178.983 304.142 179.562 307.865 179.71C313.325 179.802 316.289 177.604 316.289 177.604L318.732 188.808L320.386 188.425L322.776 170.896C322.776 170.896 322.875 158.16 307.643 159.592C292.41 161.024 275.501 165.627 275.501 165.627Z" fill="#28192D"/>
<path d="M335.175 218.546C335.175 218.546 336.056 228.839 331.821 237.316C329.239 242.432 325.346 246.771 320.54 249.891C320.54 249.891 321.643 250.198 326.023 252.786C330.404 255.375 330.741 260.445 330.741 260.445C330.741 260.445 346.525 253.361 349.535 246.606C352.544 239.851 355.094 225.392 355.094 225.392C355.094 225.392 349.443 224.006 335.175 218.546Z" fill="#28192D"/>
<path d="M308.355 230.47C309.362 234.622 311.079 238.568 313.432 242.134C317.522 248.559 320.976 249.67 320.976 249.67C320.976 249.67 317.522 254.487 316.45 256.999C315.76 258.836 315.395 260.78 315.37 262.742C311.544 260.569 307.996 257.941 304.801 254.916C299.486 249.892 297.472 238.542 297.472 238.542L308.355 230.47Z" fill="#28192D"/>
<path d="M287.724 179.971C284.057 179.261 280.577 177.795 277.508 175.667C272.821 172.244 274.758 164.945 274.843 164.624L275.608 164.83C275.608 164.899 273.724 171.937 277.982 175.047C280.957 177.087 284.316 178.502 287.854 179.205L287.724 179.971Z" fill="white"/>
<path d="M286.782 175.322C286.399 175.169 277.423 171.493 277.278 164.486H278.044C278.182 170.98 286.981 174.595 287.065 174.625L286.782 175.322Z" fill="white"/>
<path d="M320.305 174.952L319.547 175.074L321.166 185.09L321.924 184.967L320.305 174.952Z" fill="white"/>
<path d="M306.938 176.509C295.971 176.509 285.242 166.936 285.111 166.821L285.624 166.255C285.77 166.392 300.627 179.634 312.903 174.61L313.194 175.322C311.206 176.122 309.081 176.525 306.938 176.509Z" fill="white"/>
<path d="M306.938 172.466C303.476 172.466 301.34 171.478 300.091 170.521C299.03 169.778 298.227 168.723 297.794 167.503L298.56 167.296C298.629 167.534 300.26 172.979 310.2 171.432L310.323 172.198C309.203 172.375 308.072 172.465 306.938 172.466Z" fill="white"/>
<path d="M289.424 200.985C288.572 200.985 287.748 200.673 287.108 200.109C286.468 199.546 286.056 198.768 285.948 197.922L285.343 193.365C285.285 192.905 285.318 192.439 285.441 191.992C285.563 191.545 285.773 191.127 286.058 190.761C286.342 190.396 286.696 190.09 287.099 189.861C287.502 189.632 287.946 189.486 288.406 189.429L293.767 188.663C294.689 188.543 295.622 188.793 296.361 189.358C297.1 189.924 297.585 190.758 297.711 191.68C297.983 193.806 297.404 195.954 296.1 197.655C294.796 199.356 292.873 200.473 290.749 200.763L289.983 200.939C289.799 200.969 289.612 200.985 289.424 200.985ZM294.18 189.406H293.82L288.459 190.172C288.101 190.219 287.756 190.337 287.443 190.518C287.13 190.7 286.856 190.941 286.637 191.228C286.417 191.513 286.255 191.838 286.162 192.185C286.069 192.532 286.045 192.894 286.093 193.25L286.69 197.807C286.737 198.164 286.854 198.508 287.034 198.819C287.214 199.131 287.454 199.404 287.74 199.622C288.319 200.062 289.047 200.258 289.769 200.166L290.535 199.99C292.461 199.728 294.205 198.716 295.387 197.174C296.569 195.632 297.094 193.684 296.845 191.757C296.758 191.098 296.434 190.493 295.934 190.055C295.434 189.616 294.792 189.375 294.127 189.375L294.18 189.406Z" fill="#F6D4A0"/>
<path d="M308.814 198.351C307.19 198.341 305.624 197.746 304.404 196.673C303.184 195.601 302.392 194.124 302.174 192.515L301.914 190.585C301.814 189.81 302.024 189.028 302.499 188.408C302.974 187.788 303.675 187.381 304.449 187.277L312.98 186.097C313.755 185.997 314.537 186.207 315.157 186.682C315.777 187.157 316.184 187.858 316.289 188.632L317.055 194.299C317.155 195.074 316.944 195.856 316.469 196.476C315.994 197.096 315.294 197.503 314.52 197.608L309.726 198.243C309.424 198.299 309.12 198.335 308.814 198.351ZM313.363 186.863H313.08L304.556 187.989C303.984 188.065 303.465 188.365 303.114 188.823C302.762 189.281 302.606 189.859 302.68 190.432L302.933 192.369C303.035 193.143 303.288 193.89 303.678 194.566C304.069 195.242 304.589 195.834 305.208 196.309C305.827 196.784 306.534 197.133 307.289 197.334C308.043 197.536 308.829 197.587 309.603 197.485L314.397 196.857C314.97 196.779 315.489 196.478 315.84 196.018C316.192 195.559 316.347 194.98 316.273 194.406L315.508 188.739C315.434 188.222 315.177 187.747 314.784 187.403C314.39 187.059 313.886 186.867 313.363 186.863Z" fill="#F6D4A0"/>
<path d="M296.791 191.351C296.697 191.35 296.607 191.316 296.537 191.254C296.467 191.192 296.421 191.107 296.408 191.014C296.397 190.914 296.425 190.813 296.487 190.734C296.548 190.654 296.638 190.601 296.737 190.585L303.63 189.682C303.73 189.669 303.832 189.696 303.912 189.758C303.993 189.819 304.045 189.91 304.059 190.011C304.066 190.061 304.064 190.112 304.051 190.161C304.038 190.21 304.016 190.255 303.985 190.295C303.955 190.335 303.916 190.369 303.872 190.394C303.828 190.419 303.78 190.434 303.729 190.44L296.837 191.344L296.791 191.351Z" fill="#F6D4A0"/>
<path d="M315.907 189C315.829 188.999 315.753 188.975 315.69 188.93C315.626 188.885 315.578 188.821 315.551 188.748C315.524 188.675 315.521 188.595 315.54 188.52C315.56 188.444 315.603 188.377 315.662 188.326L320.977 183.8C321.014 183.767 321.058 183.741 321.105 183.725C321.153 183.709 321.203 183.702 321.253 183.706C321.303 183.71 321.352 183.723 321.396 183.746C321.441 183.769 321.481 183.8 321.513 183.838C321.579 183.916 321.611 184.016 321.604 184.118C321.597 184.219 321.551 184.314 321.475 184.382L316.16 188.908C316.089 188.967 315.999 189 315.907 189Z" fill="#F6D4A0"/>
<path d="M334.67 326.39C334.591 326.389 334.515 326.364 334.451 326.319C334.387 326.274 334.337 326.211 334.31 326.137C326.345 303.928 320.624 250.251 320.571 249.715C320.565 249.665 320.57 249.614 320.584 249.565C320.598 249.517 320.621 249.471 320.653 249.432C320.717 249.352 320.81 249.301 320.911 249.29C321.013 249.279 321.115 249.308 321.195 249.372C321.274 249.436 321.325 249.529 321.337 249.631C321.398 250.174 327.103 303.767 335.037 325.877C335.058 325.935 335.065 325.997 335.057 326.058C335.049 326.119 335.026 326.177 334.991 326.227C334.955 326.277 334.908 326.319 334.854 326.347C334.799 326.375 334.739 326.39 334.677 326.39H334.67Z" fill="#28192D"/>
<path d="M319.95 167.955L319.26 167.618C319.589 166.797 319.589 165.881 319.26 165.06C318.632 163.329 316.787 161.736 313.946 160.465C306.532 157.103 278.196 163.368 277.905 163.429L277.745 162.663C278.916 162.403 306.617 156.284 314.26 159.745C317.323 161.147 319.283 162.854 319.988 164.823C320.381 165.832 320.367 166.955 319.95 167.955Z" fill="#28192D"/>
<path d="M299.15 205.856C299.127 205.824 299.113 205.786 299.109 205.747C299.105 205.708 299.111 205.668 299.127 205.633C299.144 205.597 299.169 205.566 299.202 205.543C299.234 205.52 299.272 205.507 299.311 205.503C300.543 205.446 301.767 205.266 302.964 204.967C304.368 204.547 305.672 203.843 306.793 202.9C306.822 202.875 306.856 202.858 306.893 202.85C306.931 202.843 306.969 202.846 307.005 202.858C307.041 202.871 307.073 202.893 307.097 202.921C307.122 202.95 307.139 202.985 307.145 203.022C307.341 203.872 307.343 204.756 307.151 205.607C306.959 206.458 306.577 207.255 306.035 207.939C304.396 209.853 301.739 210.236 300.904 210.236C300.873 210.24 300.842 210.236 300.813 210.227C300.784 210.217 300.757 210.201 300.734 210.18C300.712 210.159 300.694 210.133 300.682 210.104C300.671 210.076 300.665 210.045 300.666 210.014C300.632 208.499 300.099 207.037 299.15 205.856Z" fill="#28192D"/>
<path d="M300.889 210.658C300.81 210.658 300.732 210.643 300.66 210.613C300.588 210.583 300.522 210.538 300.467 210.482C300.406 210.423 300.357 210.351 300.326 210.272C300.294 210.193 300.28 210.108 300.284 210.022C300.248 208.584 299.739 207.198 298.836 206.078C298.772 205.989 298.733 205.885 298.723 205.775C298.714 205.666 298.734 205.556 298.783 205.458C298.828 205.362 298.899 205.28 298.989 205.222C299.078 205.163 299.181 205.131 299.288 205.129C300.497 205.065 301.697 204.889 302.872 204.6C304.222 204.189 305.475 203.509 306.556 202.601C306.636 202.536 306.731 202.492 306.832 202.474C306.934 202.457 307.039 202.466 307.136 202.5C307.233 202.535 307.32 202.594 307.387 202.672C307.454 202.751 307.501 202.845 307.521 202.946C307.728 203.853 307.728 204.795 307.521 205.701C307.314 206.608 306.906 207.457 306.326 208.184C304.58 210.229 301.731 210.589 300.965 210.65L300.889 210.658ZM299.625 205.871C300.484 207.035 300.982 208.425 301.057 209.869C302.833 209.738 304.5 208.962 305.744 207.686C306.223 207.086 306.567 206.389 306.753 205.644C306.94 204.899 306.964 204.122 306.824 203.367C305.71 204.263 304.433 204.934 303.064 205.343C301.935 205.62 300.785 205.797 299.625 205.871Z" fill="#28192D"/>
<path d="M300.552 208.927C300.63 209.294 300.669 209.669 300.666 210.045C300.664 210.075 300.669 210.106 300.679 210.135C300.69 210.164 300.707 210.19 300.729 210.212C300.75 210.234 300.777 210.251 300.806 210.262C300.835 210.272 300.865 210.277 300.896 210.274C301.723 210.206 304.388 209.861 306.035 207.939C306.308 207.616 306.539 207.261 306.724 206.882C304.733 207.525 302.727 208.115 300.705 208.666C300.651 208.682 300.605 208.718 300.577 208.766C300.549 208.815 300.54 208.872 300.552 208.927Z" fill="white"/>
<path d="M300.88 210.658C300.726 210.656 300.578 210.596 300.467 210.489C300.405 210.431 300.357 210.361 300.326 210.283C300.294 210.205 300.279 210.121 300.283 210.037C300.285 209.69 300.249 209.343 300.176 209.003C300.145 208.854 300.172 208.697 300.251 208.567C300.331 208.436 300.457 208.34 300.604 208.299C302.795 207.701 304.755 207.112 306.609 206.514C306.68 206.491 306.757 206.49 306.83 206.511C306.902 206.531 306.967 206.573 307.016 206.63C307.066 206.687 307.097 206.758 307.106 206.832C307.115 206.907 307.102 206.983 307.068 207.051C306.86 207.458 306.603 207.839 306.302 208.184C304.556 210.229 301.707 210.589 300.903 210.65L300.88 210.658ZM300.957 208.996C301.007 209.287 301.038 209.581 301.049 209.876C302.829 209.746 304.499 208.966 305.743 207.686C305.743 207.648 305.812 207.61 305.843 207.564C304.319 208.046 302.71 208.513 300.972 208.996H300.957Z" fill="#28192D"/>
<path d="M307.268 203.888C307.244 203.597 307.204 203.308 307.145 203.022C307.139 202.985 307.122 202.95 307.097 202.921C307.073 202.893 307.041 202.871 307.005 202.858C306.969 202.846 306.931 202.843 306.893 202.85C306.856 202.858 306.822 202.875 306.793 202.9C305.672 203.843 304.368 204.547 302.964 204.967C301.767 205.266 300.543 205.446 299.311 205.503C299.272 205.507 299.234 205.52 299.202 205.543C299.169 205.566 299.144 205.597 299.127 205.633C299.111 205.668 299.105 205.708 299.109 205.747C299.113 205.786 299.127 205.824 299.15 205.856C299.381 206.186 299.593 206.528 299.786 206.882C299.81 206.923 299.847 206.956 299.891 206.975C299.935 206.994 299.984 206.999 300.031 206.989C302.544 206.401 304.949 205.424 307.161 204.094C307.194 204.071 307.222 204.041 307.24 204.004C307.259 203.968 307.269 203.928 307.268 203.888Z" fill="white"/>
<path d="M299.977 207.38C299.87 207.38 299.765 207.351 299.673 207.295C299.582 207.24 299.507 207.161 299.456 207.066C299.266 206.727 299.059 206.397 298.836 206.078C298.772 205.989 298.733 205.885 298.723 205.775C298.714 205.666 298.734 205.556 298.783 205.458C298.829 205.362 298.901 205.281 298.99 205.224C299.079 205.166 299.182 205.133 299.288 205.128C300.497 205.065 301.697 204.888 302.872 204.6C304.221 204.191 305.472 203.511 306.548 202.601C306.629 202.536 306.724 202.493 306.826 202.475C306.929 202.458 307.033 202.466 307.131 202.501C307.229 202.536 307.316 202.595 307.384 202.673C307.452 202.75 307.499 202.844 307.521 202.946C307.585 203.246 307.626 203.551 307.643 203.857C307.653 203.969 307.632 204.08 307.582 204.181C307.532 204.281 307.455 204.365 307.36 204.424C305.112 205.774 302.668 206.766 300.115 207.365L299.977 207.38ZM299.625 205.848C299.786 206.086 299.931 206.331 300.069 206.568C302.466 205.994 304.761 205.059 306.877 203.796C306.877 203.643 306.877 203.49 306.824 203.344C305.71 204.24 304.433 204.911 303.064 205.32C301.937 205.609 300.786 205.793 299.625 205.871V205.848Z" fill="#28192D"/>
<path d="M240.189 411.781H110.28C108.947 411.814 107.642 411.399 106.573 410.602C105.503 409.805 104.733 408.672 104.383 407.385L79.1108 306.119C78.2837 302.635 81.1479 299.326 85.0077 299.326H214.87C216.202 299.292 217.508 299.705 218.577 300.501C219.646 301.297 220.418 302.428 220.767 303.714L246.078 404.981C246.913 408.473 244.041 411.781 240.189 411.781Z" fill="white"/>
<path d="M240.188 412.164H110.28C108.859 412.204 107.466 411.763 106.328 410.912C105.189 410.062 104.372 408.851 104.008 407.477L78.7354 306.218C78.5394 305.381 78.5361 304.511 78.7259 303.672C78.9156 302.834 79.2933 302.049 79.8305 301.378C80.4521 300.606 81.2413 299.986 82.1382 299.564C83.0352 299.142 84.0164 298.93 85.0075 298.943H214.87C216.291 298.903 217.683 299.344 218.822 300.194C219.961 301.045 220.778 302.256 221.142 303.63L246.453 404.888C246.649 405.724 246.652 406.594 246.462 407.431C246.273 408.268 245.895 409.051 245.358 409.721C244.739 410.495 243.951 411.117 243.056 411.54C242.16 411.964 241.179 412.177 240.188 412.164ZM84.931 299.709C84.0521 299.691 83.1809 299.876 82.3844 300.247C81.5878 300.619 80.8871 301.168 80.336 301.853C79.8698 302.432 79.5414 303.109 79.3756 303.834C79.2097 304.558 79.2108 305.311 79.3787 306.035L104.697 407.293C105.029 408.494 105.753 409.55 106.753 410.294C107.753 411.037 108.973 411.426 110.219 411.398H240.188C241.068 411.414 241.939 411.228 242.736 410.855C243.532 410.482 244.233 409.932 244.783 409.246C245.249 408.669 245.578 407.993 245.744 407.27C245.909 406.546 245.908 405.795 245.741 405.072L220.468 303.806C220.132 302.606 219.406 301.553 218.405 300.811C217.404 300.069 216.184 299.681 214.939 299.709H84.931Z" fill="#28192D"/>
<path d="M237.026 411.781H107.087C105.754 411.814 104.448 411.399 103.379 410.602C102.31 409.805 101.539 408.672 101.19 407.385L75.9176 306.119C75.0829 302.635 77.9547 299.326 81.8069 299.326H211.715C213.048 299.292 214.353 299.705 215.422 300.501C216.491 301.297 217.263 302.428 217.612 303.714L242.923 404.981C243.75 408.473 240.886 411.781 237.026 411.781Z" fill="white"/>
<path d="M237.026 412.164H107.087C105.666 412.203 104.274 411.761 103.136 410.911C101.997 410.06 101.18 408.85 100.815 407.477L75.542 306.218C75.346 305.381 75.3428 304.511 75.5325 303.672C75.7222 302.834 76.0999 302.049 76.6372 301.378C77.258 300.607 78.0459 299.987 78.9414 299.565C79.837 299.143 80.8167 298.931 81.8065 298.943H211.715C213.135 298.904 214.527 299.345 215.666 300.196C216.804 301.046 217.622 302.256 217.987 303.63L243.298 404.888C243.494 405.724 243.497 406.593 243.307 407.431C243.117 408.268 242.74 409.051 242.203 409.721C241.583 410.495 240.794 411.118 239.897 411.541C239 411.964 238.018 412.177 237.026 412.164ZM81.7682 299.709C80.8894 299.691 80.0182 299.875 79.2217 300.247C78.4251 300.619 77.7244 301.168 77.1732 301.853C76.7071 302.432 76.3787 303.109 76.2129 303.833C76.047 304.558 76.0481 305.31 76.2159 306.034L101.534 407.293C101.867 408.494 102.59 409.55 103.59 410.294C104.59 411.037 105.81 411.426 107.056 411.398H237.026C237.905 411.416 238.777 411.231 239.574 410.857C240.371 410.484 241.071 409.933 241.621 409.246C242.087 408.669 242.416 407.993 242.582 407.27C242.748 406.546 242.746 405.795 242.578 405.072L217.236 303.806C216.903 302.606 216.179 301.552 215.179 300.81C214.179 300.068 212.96 299.68 211.715 299.709H81.7682Z" fill="#28192D"/>
<path opacity="0.12" d="M88.3464 330.932L117.517 301.738H85.1299C81.4386 301.738 78.6969 304.901 79.4934 308.24L85.8728 333.781C86.6132 332.761 87.4409 331.808 88.3464 330.932Z" fill="#F6D4A0"/>
<path opacity="0.07" d="M202.839 390.613C212.281 383.904 221.847 377.356 231.243 370.586L221.571 331.874L207.38 346.072L144.107 409.345H179.519C186.565 402.254 194.683 396.403 202.839 390.613Z" fill="#F6D4A0"/>
<path opacity="0.12" d="M237.508 395.645C231.251 400.056 224.956 404.421 218.699 408.848L218.002 409.346H233.671C237.363 409.346 240.104 406.183 239.308 402.844L237.508 395.645Z" fill="#F6D4A0"/>
<path d="M153.143 365.341C158.304 365.341 162.487 361.158 162.487 355.998C162.487 350.838 158.304 346.655 153.143 346.655C147.983 346.655 143.8 350.838 143.8 355.998C143.8 361.158 147.983 365.341 153.143 365.341Z" fill="#ECA3B5"/>
</svg>
